<svg version="1.0" xmlns="http://www.w3.org/2000/svg" width="900.000000pt" height="900.000000pt" viewBox="0 0 900.000000 900.000000" preserveAspectRatio="xMidYMid meet">
  <g transform="translate(0.000000,900.000000) scale(0.100000,-0.100000)" fill="#023b3b" stroke="none">
    <path d="M4257 7734 c-3 -4 -25 -8 -47 -9 -22 -1 -49 -10 -59 -19 -9 -9 -24 -16 -32 -16 -8 0 -20 -5 -27 -12 -8 -8 -15 -8 -24 0 -11 8 -17 6 -26 -9 -7 -10 -21 -19 -32 -19 -11 0 -36 -9 -57 -19 -21 -11 -50 -25 -65 -30 -16 -6 -28 -16 -28 -22 0 -7 -9 -9 -25 -5 -18 5 -28 1 -37 -14 -8 -12 -24 -20 -40 -20 -21 0 -28 -5 -28 -20 0 -16 -5 -19 -24 -14 -13 3 -27 1 -30 -5 -4 -6 -17 -11 -28 -11 -11 0 -26 -8 -33 -17 -11 -14 -16 -15 -28 -4 -13 10 -17 9 -25 -6 -6 -10 -34 -27 -62 -37 -28 -10 -54 -25 -57 -32 -3 -8 -17 -14 -32 -14 -14 0 -35 -7 -45 -15 -11 -8 -27 -15 -37 -15 -9 0 -22 -7 -29 -15 -7 -8 -21 -15 -31 -15 -10 0 -44 -14 -75 -31 -38 -20 -65 -28 -81 -25 -17 5 -23 2 -23 -9 0 -23 28 -30 49 -11 10 9 32 16 50 16 19 0 34 6 37 15 4 9 19 15 35 15 17 0 32 6 35 15 4 9 19 15 39 15 20 0 35 6 39 15 3 9 18 15 35 15 16 0 31 6 35 15 3 9 18 15 40 15 21 0 36 6 40 15 3 9 18 15 40 15 21 0 36 6 40 15 3 9 18 15 35 15 16 0 31 6 35 15 3 8 14 15 25 15 10 0 32 7 47 15 16 8 36 15 45 15 9 0 19 7 23 15 3 9 18 15 35 15 16 0 31 6 35 15 3 9 18 15 34 15 16 0 35 7 42 15 7 8 24 15 39 15 14 0 35 7 45 15 11 8 28 15 39 15 10 0 25 7 33 15 9 8 28 15 44 15 16 0 30 7 34 15 3 9 18 15 36 15 18 0 33 -6 36 -15 4 -8 16 -15 29 -15 12 0 28 -7 35 -15 7 -8 22 -15 34 -15 12 0 31 -7 42 -15 10 -8 29 -15 41 -15 12 0 28 -7 37 -15 8 -8 26 -15 40 -15 13 0 31 -7 40 -15 8 -8 26 -15 40 -15 14 0 29 -7 34 -16 5 -9 24 -17 42 -18 19 -1 35 -7 38 -14 2 -6 17 -12 33 -12 17 0 32 -6 35 -15 4 -8 18 -15 34 -15 15 0 33 -7 40 -15 7 -8 22 -15 34 -15 12 0 31 -7 42 -15 10 -8 29 -15 41 -15 12 0 28 -6 35 -14 8 -7 28 -17 46 -21 17 -3 34 -11 37 -16 4 -5 20 -9 36 -9 17 0 32 -6 35 -15 4 -9 19 -15 35 -15 17 0 32 -6 35 -15 4 -9 19 -15 40 -15 22 0 37 -6 40 -15 4 -8 16 -15 28 -15 12 0 31 -7 42 -15 10 -8 29 -15 41 -15 12 0 28 -7 37 -15 8 -8 23 -15 34 -15 11 0 25 -7 32 -15 7 -8 28 -15 47 -15 21 0 36 -6 39 -15 4 -9 19 -15 35 -15 17 0 32 -6 35 -15 4 -9 19 -15 39 -15 18 0 38 -7 45 -15 7 -8 20 -15 29 -15 9 0 28 -6 42 -14 14 -7 37 -16 52 -20 15 -3 27 -11 27 -16 0 -6 13 -10 29 -10 16 0 34 -7 41 -15 7 -8 26 -15 42 -15 16 0 31 -6 34 -15 4 -9 19 -15 35 -15 17 0 32 -6 35 -15 4 -8 18 -15 34 -15 16 0 35 -7 44 -15 8 -8 26 -15 39 -15 14 0 30 -7 37 -15 7 -8 23 -15 36 -15 12 0 29 -7 38 -15 8 -8 26 -15 39 -15 14 0 30 -7 37 -15 7 -8 23 -15 36 -15 12 0 29 -7 38 -15 8 -8 26 -15 39 -15 14 0 30 -7 37 -15 7 -8 22 -15 34 -15 12 0 31 -7 42 -15 10 -8 29 -15 40 -15 12 0 27 -7 34 -15 7 -8 26 -15 42 -15 16 0 31 -6 34 -15 4 -9 19 -15 35 -15 17 0 32 -6 35 -15 4 -9 19 -15 40 -15 22 0 37 -6 40 -15 4 -9 19 -15 39 -15 67 0 63 53 66 -860 1 -465 6 -830 11 -837 5 -7 5 -14 -1 -17 -12 -8 -14 -615 -2 -635 14 -21 21 85 17 264 -1 88 1 176 5 195 5 20 4 39 -1 44 -13 13 -13 136 -1 136 11 0 9 129 -2 148 -5 6 -5 18 0 25 4 6 9 73 10 147 1 74 3 167 3 205 1 39 -2 91 -5 117 -4 26 -4 55 0 65 10 27 13 136 4 154 -5 9 -5 19 -2 23 10 10 11 756 1 762 -5 3 -6 14 -3 23 3 10 -1 24 -10 31 -8 7 -15 21 -15 31 0 11 -7 19 -17 19 -10 0 -40 12 -68 25 -27 14 -58 25 -68 25 -10 0 -20 7 -23 15 -4 9 -19 15 -40 15 -21 0 -44 9 -60 23 -14 12 -40 25 -57 29 -80 17 -93 22 -100 35 -6 9 -17 13 -32 9 -15 -4 -28 1 -40 14 -10 11 -34 22 -54 26 -20 3 -47 14 -61 23 -35 23 -82 42 -88 36 -3 -2 -17 2 -31 10 -14 8 -75 33 -136 55 -60 23 -118 46 -127 51 -10 5 -24 9 -32 9 -8 0 -16 6 -19 14 -6 15 -89 47 -129 50 -15 0 -33 7 -40 14 -6 6 -17 12 -24 12 -6 0 -17 6 -23 14 -6 7 -29 16 -50 20 -21 3 -49 14 -62 24 -13 11 -42 22 -63 26 -21 4 -71 22 -110 41 -39 18 -91 39 -116 46 -25 7 -60 24 -79 36 -19 13 -46 26 -60 29 -14 3 -34 9 -43 14 -11 6 -19 6 -23 0 -10 -16 -23 -12 -30 10 -4 12 -15 20 -29 20 -13 0 -29 6 -36 14 -6 8 -19 12 -27 9 -9 -4 -21 1 -29 12 -8 11 -21 16 -34 12 -11 -3 -20 -2 -20 2 0 10 -46 31 -66 31 -9 0 -27 9 -41 20 -16 12 -34 18 -45 14 -11 -3 -29 3 -44 15 -15 12 -32 21 -38 21 -7 0 -31 9 -54 20 -22 11 -47 20 -54 20 -7 0 -33 11 -58 24 -25 13 -62 29 -83 36 -22 7 -51 18 -65 26 -15 8 -37 14 -49 14 -30 0 -53 10 -53 24 0 12 -151 22 -163 10z"/>
    <path d="M4350 7620 c0 -5 7 -10 15 -10 8 0 15 5 15 10 0 6 -7 10 -15 10 -8 0 -15 -4 -15 -10z"/>
    <path d="M4495 7560 c-3 -5 3 -10 15 -10 12 0 18 5 15 10 -3 6 -10 10 -15 10 -5 0 -12 -4 -15 -10z"/>
    <path d="M1579 7431 c-14 -11 -38 -23 -53 -27 -15 -3 -30 -14 -34 -23 -3 -9 -19 -35 -34 -58 -41 -61 -60 -120 -47 -145 6 -11 9 -37 7 -57 -4 -29 2 -46 29 -85 18 -26 33 -53 33 -59 0 -6 8 -19 17 -29 11 -13 17 -38 18 -77 1 -32 5 -63 9 -70 5 -7 0 -21 -10 -33 -17 -18 -17 -21 -3 -31 16 -12 18 -87 4 -160 -2 -15 1 -36 7 -47 9 -13 9 -22 1 -32 -10 -12 -9 -117 1 -238 5 -46 31 -141 42 -149 5 -3 20 -23 34 -44 14 -20 33 -40 43 -43 10 -3 25 -23 33 -45 9 -21 20 -39 25 -39 15 0 64 -60 71 -87 4 -14 3 -33 -1 -42 -5 -9 -5 -79 -1 -156 4 -77 3 -153 -1 -168 -5 -17 -4 -38 3 -51 7 -17 7 -29 -1 -44 -8 -14 -8 -29 0 -51 8 -23 8 -39 -1 -60 -9 -23 -9 -33 1 -49 9 -15 10 -24 2 -34 -9 -11 -9 -66 0 -158 1 -16 -3 -24 -11 -22 -9 2 -11 -2 -5 -10 7 -11 10 -106 14 -428 0 -25 -1 -67 -4 -93 -2 -26 0 -50 4 -52 4 -3 5 -27 3 -53 -3 -26 -5 -55 -4 -64 0 -10 0 -29 0 -43 -1 -56 0 -85 4 -205 2 -69 1 -174 -3 -235 -4 -60 -5 -114 -1 -120 12 -18 5 -126 -9 -134 -10 -7 -10 -9 2 -14 13 -5 15 -24 11 -114 -5 -122 -5 -113 0 -209 2 -40 6 -77 10 -82 4 -6 -2 -36 -13 -66 -10 -30 -15 -56 -10 -58 16 -5 13 -224 -3 -234 -5 -3 -1 -12 9 -19 15 -11 16 -18 7 -43 -8 -21 -9 -65 -4 -143 10 -132 3 -229 -15 -229 -7 0 -16 -10 -19 -23 -29 -96 -36 -139 -37 -222 -1 -62 -6 -98 -14 -103 -24 -14 -36 -53 -40 -128 -3 -62 0 -84 15 -115 24 -45 60 -75 103 -84 18 -4 40 -14 49 -22 15 -14 20 -14 34 -2 9 8 28 12 41 11 15 -2 34 5 49 18 18 18 31 21 56 17 18 -3 27 -3 21 0 -16 6 -17 37 -2 62 10 14 16 16 34 7 19 -8 23 -19 24 -59 0 -27 -6 -64 -13 -81 -8 -17 -24 -59 -37 -94 -20 -57 -21 -68 -10 -117 7 -29 19 -59 27 -65 7 -7 14 -20 14 -29 0 -32 84 -79 150 -82 83 -5 108 1 151 37 51 42 92 109 84 135 -3 9 -1 20 5 24 19 12 12 94 -10 112 -11 10 -20 30 -20 45 0 22 -5 28 -21 28 -20 0 -21 3 -14 63 5 34 7 69 5 77 -1 8 -2 97 -2 197 1 173 2 184 23 213 13 16 28 30 33 30 6 0 23 -26 38 -58 15 -32 38 -70 52 -85 20 -21 24 -34 19 -58 -4 -22 -1 -33 13 -44 15 -11 17 -18 9 -32 -6 -10 -10 -55 -8 -100 1 -45 -2 -85 -7 -88 -5 -3 -7 -32 -5 -63 15 -168 11 -301 -8 -250 -2 7 -8 9 -13 5 -5 -5 -1 -13 8 -18 23 -13 44 -77 30 -91 -8 -8 -8 -17 -1 -30 8 -15 6 -29 -6 -55 -9 -19 -15 -43 -12 -53 3 -13 -3 -25 -19 -35 -13 -8 -24 -22 -24 -31 0 -8 -9 -27 -21 -43 l-20 -28 21 -37 c15 -28 18 -41 10 -51 -11 -13 1 -31 71 -103 47 -47 162 -61 213 -26 11 7 30 11 43 8 16 -4 23 -2 23 8 0 8 9 23 21 34 27 25 52 72 44 85 -4 5 0 21 9 34 23 34 20 73 -6 96 -20 16 -20 18 -5 19 17 0 25 30 8 30 -5 0 -11 14 -15 30 -3 17 -17 41 -31 54 -22 20 -24 27 -15 50 6 16 6 34 1 44 -4 9 -6 23 -4 30 3 7 0 19 -7 27 -9 11 -8 21 4 45 12 25 13 35 3 51 -9 14 -9 21 0 30 9 9 9 16 0 29 -8 14 -8 22 1 32 6 8 9 23 6 35 -3 11 -1 24 5 27 16 10 13 43 -4 50 -17 6 -20 51 -5 61 6 3 10 24 10 46 0 21 -4 39 -10 39 -13 0 -13 37 0 45 7 4 7 11 2 18 -10 14 -10 87 0 103 4 5 3 28 -2 50 -5 21 -10 53 -10 70 0 19 -6 34 -15 38 -8 3 -15 14 -15 24 0 11 -7 25 -15 32 -8 7 -15 19 -15 27 0 8 -6 20 -13 27 -7 8 -19 32 -27 55 -11 33 -11 46 -1 65 10 18 10 29 2 44 -14 27 -14 65 1 80 9 9 9 15 0 24 -16 16 -15 93 0 118 11 17 10 22 -1 29 -9 6 -12 18 -7 37 4 16 6 36 6 44 -1 8 -2 52 -2 98 -1 96 10 117 44 85 13 -11 33 -26 45 -32 14 -7 20 -17 17 -26 -4 -9 0 -15 8 -15 19 0 70 -60 64 -76 -3 -7 2 -14 11 -16 14 -3 17 -21 17 -126 1 -68 -2 -126 -6 -128 -4 -3 -3 -16 2 -30 12 -31 10 -125 -3 -142 -7 -8 -6 -21 3 -38 15 -28 16 -119 2 -234 -5 -41 -5 -80 -1 -86 13 -16 4 -187 -9 -192 -9 -3 -9 -9 0 -25 8 -15 11 -65 9 -153 -2 -104 0 -133 12 -142 8 -7 12 -22 10 -36 -7 -34 52 -138 112 -199 17 -16 25 -33 21 -42 -3 -9 1 -18 10 -22 12 -4 14 -14 9 -39 -3 -19 -1 -43 5 -54 9 -16 7 -28 -5 -52 -11 -23 -12 -34 -4 -39 9 -5 9 -15 1 -36 -5 -17 -8 -42 -5 -57 4 -20 -1 -31 -21 -47 -14 -11 -26 -29 -26 -40 0 -11 -7 -22 -15 -25 -24 -9 -13 -183 14 -227 33 -53 135 -117 188 -117 42 0 169 65 176 89 3 12 12 21 20 21 9 0 17 14 21 36 4 19 14 38 22 41 16 6 19 33 4 33 -5 0 -10 7 -10 15 0 8 5 15 10 15 15 0 12 26 -5 40 -9 8 -12 22 -8 41 3 17 0 35 -7 44 -10 12 -10 15 4 15 9 0 16 7 16 15 0 8 -4 15 -10 15 -5 0 -28 18 -51 41 l-41 41 2 106 c1 59 -1 117 -5 130 -8 25 12 31 33 10 18 -18 27 -1 10 19 -23 27 -58 105 -52 115 3 5 -1 17 -9 26 -9 9 -18 29 -22 44 -4 17 -15 28 -28 30 -15 2 -23 11 -25 28 -2 14 -10 32 -17 40 -23 26 -39 123 -25 149 9 19 9 26 -5 41 -9 10 -14 23 -10 29 10 16 14 554 4 572 -4 9 -5 19 -2 23 11 10 11 396 1 504 -8 94 -27 148 -54 159 -7 3 -14 9 -14 15 0 5 -35 47 -77 93 l-78 84 -4 93 c-7 179 -1 280 17 286 7 2 12 16 12 31 0 15 9 36 20 46 11 10 20 22 20 27 0 6 10 18 23 29 16 13 38 18 84 19 34 0 73 5 87 11 19 9 29 9 40 0 11 -9 20 -10 36 -1 16 9 21 8 26 -4 4 -11 14 -14 28 -10 17 4 34 -8 79 -55 31 -33 57 -64 57 -70 0 -6 6 -11 13 -11 17 0 95 -77 102 -101 4 -11 11 -19 17 -19 16 0 100 -80 121 -115 11 -16 56 -67 101 -111 46 -45 93 -96 105 -113 12 -17 31 -31 41 -31 10 0 21 -9 25 -19 3 -11 12 -22 20 -25 8 -3 15 -11 15 -18 0 -13 49 -67 116 -128 21 -19 67 -66 103 -105 35 -38 72 -73 82 -77 11 -4 19 -14 19 -21 0 -8 15 -26 34 -41 19 -14 37 -34 40 -44 3 -9 33 -38 65 -62 33 -25 67 -58 77 -74 14 -24 79 -97 124 -141 6 -5 23 -23 38 -40 15 -16 49 -50 76 -75 26 -25 54 -57 62 -72 8 -16 21 -28 28 -28 8 0 24 -14 37 -31 13 -17 34 -42 46 -56 12 -14 23 -28 25 -31 2 -4 16 -14 32 -22 16 -8 36 -30 45 -47 9 -18 21 -33 28 -33 13 0 103 -98 103 -112 0 -6 6 -8 14 -5 15 6 46 -32 46 -56 0 -8 14 -17 31 -21 18 -3 33 -13 36 -24 4 -18 69 -52 98 -52 8 0 15 -5 15 -10 0 -6 11 -8 25 -4 40 10 114 -5 137 -28 19 -19 22 -19 30 -4 5 9 15 16 23 16 7 0 15 5 17 11 5 15 205 23 214 8 4 -7 9 -7 13 -1 7 10 120 22 126 13 7 -13 393 -13 432 -1 60 20 66 24 82 69 12 33 13 45 3 59 -6 9 -18 31 -26 47 -7 17 -37 53 -65 82 -30 30 -54 64 -57 82 -7 33 -21 41 -30 16 -8 -20 -16 -19 -43 6 -15 14 -21 30 -19 47 2 22 -1 27 -19 27 -29 1 -76 52 -67 74 18 43 18 55 -1 47 -29 -11 -157 98 -190 163 -9 18 -25 36 -36 38 -10 3 -19 9 -19 14 0 4 -13 16 -30 25 -18 11 -30 28 -32 43 -2 14 -12 30 -23 36 -38 20 -75 47 -75 56 0 13 -102 114 -123 122 -9 3 -17 12 -17 18 0 7 -43 54 -95 105 -65 64 -93 98 -89 108 4 11 0 16 -14 16 -10 0 -36 16 -56 35 -21 19 -42 35 -48 35 -6 0 -8 10 -4 24 5 21 1 28 -26 41 -49 23 -64 37 -71 65 -4 15 -27 39 -57 59 -38 26 -51 42 -56 67 -5 25 -11 34 -26 34 -11 0 -22 8 -25 20 -3 10 -13 22 -23 25 -10 3 -25 17 -34 30 -9 14 -23 25 -31 25 -9 0 -15 9 -15 21 0 21 -36 58 -57 59 -12 0 -38 39 -35 50 1 3 -7 6 -18 6 -27 2 -34 10 -35 42 0 19 -6 28 -20 30 -11 2 -40 25 -65 51 -25 26 -53 50 -63 54 -9 3 -17 16 -17 27 0 11 -7 23 -16 27 -22 8 -144 135 -144 149 0 6 -12 20 -27 29 -60 40 -143 151 -143 191 0 13 6 27 14 31 8 4 39 32 70 61 31 28 63 52 72 52 8 0 18 9 22 19 4 11 35 48 70 83 34 35 68 69 75 76 6 7 31 33 54 57 24 24 43 47 43 52 0 12 43 53 56 53 5 0 31 25 59 55 27 30 55 55 62 55 7 0 13 9 13 20 0 11 8 24 18 27 19 8 128 117 143 145 5 10 14 18 19 18 10 0 40 27 160 142 28 27 50 54 51 60 0 7 34 39 75 71 41 32 74 64 74 70 0 13 80 97 92 97 11 0 208 200 208 211 0 5 9 9 20 9 11 0 20 7 20 14 0 20 41 63 64 67 10 2 26 18 36 36 18 34 71 83 89 83 6 0 11 5 11 10 0 16 169 180 186 180 8 0 14 8 14 18 0 10 21 38 48 62 26 25 47 52 47 60 0 8 7 14 16 12 10 -1 23 15 38 47 l22 50 -23 40 c-13 23 -29 41 -35 41 -7 0 -13 5 -13 10 0 6 -8 10 -17 10 -9 0 -24 6 -32 14 -12 11 -27 12 -64 5 -35 -6 -63 -5 -104 6 -41 11 -60 12 -70 4 -8 -7 -30 -9 -57 -5 -29 5 -52 3 -65 -5 -15 -10 -25 -10 -46 -1 -18 8 -32 9 -45 2 -10 -6 -21 -6 -24 -1 -3 4 -37 6 -76 3 -47 -3 -74 -1 -85 8 -9 7 -22 9 -32 5 -27 -12 -256 -14 -270 -3 -9 7 -13 7 -13 -1 0 -6 -9 -11 -19 -11 -11 0 -23 -5 -26 -10 -4 -7 -13 -7 -25 0 -15 8 -21 6 -30 -10 -9 -17 -14 -18 -31 -9 -17 9 -21 7 -26 -10 -3 -12 -10 -21 -16 -21 -5 0 -34 -25 -63 -55 -30 -30 -60 -55 -69 -55 -8 0 -15 -9 -15 -19 0 -18 -35 -53 -94 -94 -14 -10 -26 -27 -26 -37 0 -11 -7 -20 -15 -20 -8 0 -34 -20 -57 -44 -24 -24 -79 -81 -123 -126 -44 -45 -91 -91 -105 -102 -14 -11 -25 -27 -25 -36 0 -10 -10 -18 -22 -20 -13 -2 -23 -8 -23 -13 0 -13 -60 -73 -87 -88 -13 -6 -23 -21 -23 -31 0 -11 -7 -20 -15 -20 -8 0 -21 -13 -30 -30 -9 -16 -22 -30 -29 -30 -7 0 -46 -35 -87 -77 -40 -43 -82 -80 -93 -83 -10 -3 -24 -14 -30 -24 -6 -11 -19 -28 -28 -38 -10 -10 -18 -22 -18 -28 0 -5 -9 -10 -20 -10 -12 0 -20 -7 -20 -17 -1 -24 -24 -53 -42 -53 -8 0 -20 -11 -26 -24 -6 -13 -24 -32 -41 -42 -17 -10 -31 -24 -31 -31 0 -8 -11 -18 -24 -23 -13 -5 -27 -18 -31 -29 -9 -30 -63 -81 -86 -81 -10 0 -19 -4 -19 -10 0 -5 -24 -34 -52 -63 -29 -30 -96 -99 -148 -155 -52 -56 -103 -102 -113 -102 -14 0 -16 -5 -11 -25 6 -25 -8 -35 -21 -15 -4 7 -12 7 -25 0 -10 -5 -25 -7 -33 -4 -8 3 -18 1 -21 -5 -9 -14 -221 -5 -250 11 -13 7 -42 23 -65 36 -22 12 -41 29 -41 37 0 7 -9 30 -21 49 -12 21 -22 58 -24 88 -1 29 -4 55 -5 58 -1 3 -1 13 0 23 1 10 -4 24 -10 32 -9 11 -7 16 10 25 20 11 21 13 5 30 -15 17 -15 21 -1 49 15 28 15 31 -1 39 -15 9 -15 14 -3 51 10 32 11 47 2 66 -14 30 -6 110 14 142 18 29 18 43 -2 43 -13 0 -15 7 -9 39 4 22 1 57 -6 80 -10 35 -10 43 4 59 15 16 15 20 1 34 -14 14 -14 18 1 47 8 17 13 37 9 43 -4 6 -8 23 -9 37 -1 14 -5 38 -9 53 -6 22 -4 27 14 33 l22 7 -21 19 c-23 21 -27 44 -11 54 6 3 10 19 10 35 0 15 6 31 13 34 8 3 7 9 -7 20 -18 14 -18 27 -1 68 4 11 0 18 -14 23 -18 6 -20 12 -14 48 3 23 13 47 21 53 12 9 12 12 -2 23 -18 15 -22 56 -6 66 6 3 7 17 4 30 -3 12 -1 26 6 30 8 5 6 11 -7 20 -15 11 -16 17 -6 33 11 18 5 74 -10 99 -3 5 3 17 13 26 14 12 18 24 14 49 -5 29 -2 37 25 57 24 19 28 27 21 42 -7 13 -6 20 4 26 7 4 16 17 18 28 2 13 10 19 23 17 16 -3 17 -1 7 11 -7 8 -12 34 -11 58 1 70 -6 118 -19 131 -7 7 -12 22 -12 33 0 24 -65 66 -88 58 -7 -3 -24 5 -37 17 -18 17 -30 20 -53 15 -18 -3 -33 -2 -37 4 -10 18 -65 12 -92 -9 -14 -11 -31 -20 -38 -20 -6 0 -22 -11 -35 -25 -13 -14 -31 -25 -41 -25 -17 0 -29 -27 -29 -71 0 -18 -8 -29 -25 -37 -21 -10 -24 -15 -16 -30 6 -11 10 -27 10 -38 2 -68 11 -108 30 -128 11 -12 21 -27 21 -33 0 -5 10 -21 23 -35 16 -18 23 -38 25 -82 1 -32 7 -67 13 -78 8 -15 7 -24 -5 -37 -9 -10 -13 -20 -10 -23 3 -4 6 -64 7 -135 2 -116 0 -128 -16 -125 -13 2 -17 -4 -17 -26 0 -15 5 -33 12 -40 9 -9 9 -15 0 -24 -9 -9 -13 -7 -18 5 -3 9 -15 17 -26 17 -11 0 -28 5 -38 10 -13 7 -21 7 -25 0 -3 -5 -15 -10 -27 -10 -11 0 -29 -11 -39 -25 -11 -13 -26 -22 -33 -19 -13 5 -35 -9 -77 -48 -16 -15 -17 -13 -15 49 1 36 -2 67 -6 69 -10 7 -7 117 4 131 6 7 5 19 -1 32 -14 25 -14 86 -1 111 7 13 6 21 -5 30 -10 9 -12 16 -5 24 5 7 10 26 10 42 1 46 -9 196 -15 230 -4 22 -1 33 8 37 9 3 14 21 14 47 0 28 7 48 22 64 11 12 21 33 21 45 0 14 7 25 20 28 12 3 20 14 20 27 0 13 3 26 6 29 4 3 8 37 10 74 3 74 -4 91 -60 151 -17 18 -33 40 -36 48 -4 9 -22 22 -41 29 -18 7 -56 21 -83 31 -36 14 -50 16 -53 7 -3 -7 -31 -15 -63 -19 -43 -5 -65 -13 -81 -30 -12 -13 -32 -24 -43 -24 -35 0 -50 -14 -31 -30 13 -11 12 -15 -10 -36 -26 -24 -45 -31 -45 -16 0 4 5 13 11 19 8 8 7 17 -3 32 -10 17 -10 23 -1 29 19 12 9 92 -15 132 -12 19 -22 49 -22 67 0 35 -17 53 -31 32 -6 -11 -12 -6 -21 19 -7 17 -22 35 -33 38 -11 4 -28 13 -37 21 -10 9 -22 12 -30 7 -13 -8 -55 -8 -118 2 -27 4 -43 0 -61 -15z m221 -98 c51 -44 72 -89 78 -164 3 -42 0 -59 -12 -68 -9 -8 -16 -19 -16 -25 -1 -16 -41 -62 -67 -75 l-23 -12 0 -366 c0 -349 1 -367 20 -398 19 -31 120 -115 137 -115 16 0 48 -45 65 -90 17 -41 18 -162 18 -1879 1 -1481 -2 -1836 -12 -1843 -7 -4 -25 -8 -40 -8 -37 0 -42 -22 -39 -164 l3 -118 34 -30 c32 -28 34 -34 34 -91 0 -73 -25 -116 -80 -141 -59 -26 -99 -20 -152 23 -21 16 -58 85 -58 107 0 31 39 100 64 114 l26 13 0 153 0 153 39 38 38 39 1 1774 c1 976 -1 1783 -4 1793 -3 9 -19 24 -35 33 -48 24 -177 160 -184 194 -4 16 -11 32 -16 35 -5 4 -9 163 -9 382 0 336 -2 378 -17 395 -9 10 -21 18 -27 18 -6 0 -18 10 -26 23 -64 100 -67 160 -11 267 4 8 26 27 47 42 33 23 49 27 110 28 67 0 73 -2 114 -37z m498 -220 c88 -56 127 -141 103 -224 -13 -48 -31 -72 -74 -106 l-27 -21 0 -2239 c1 -1231 2 -2386 3 -2568 l3 -330 32 -33 c18 -18 32 -39 32 -48 0 -8 7 -17 15 -20 20 -8 20 -77 0 -94 -8 -7 -15 -18 -15 -24 0 -21 -52 -76 -71 -76 -10 0 -21 -4 -24 -10 -9 -15 -67 -12 -107 4 -41 18 -79 65 -97 123 -13 38 -12 46 7 86 12 25 33 54 46 65 l26 20 3 2528 c2 1391 7 2540 11 2554 8 27 4 32 -64 89 -49 41 -91 167 -61 186 5 3 12 18 16 34 18 82 172 149 243 104z m-336 -128 c3 -13 1 -47 -3 -76 -9 -57 6 -93 42 -102 18 -5 20 -11 14 -37 -6 -26 -4 -32 13 -37 23 -6 34 -34 21 -54 -5 -8 -3 -20 5 -29 19 -21 26 -71 14 -93 -7 -13 -6 -23 1 -30 14 -14 14 -54 0 -63 -7 -4 -9 -21 -5 -43 3 -20 0 -50 -6 -67 -10 -27 -8 -34 11 -53 21 -21 21 -22 4 -49 -10 -15 -22 -30 -28 -34 -5 -4 0 -8 13 -8 26 0 30 -31 7 -50 -11 -9 -14 -22 -10 -42 4 -15 3 -28 -2 -28 -14 0 -68 74 -65 89 3 12 1 12 -10 4 -21 -18 -81 23 -73 48 5 14 1 19 -12 19 -19 0 -47 55 -37 71 3 5 -2 32 -10 60 -12 41 -14 61 -5 91 10 39 4 119 -12 150 -6 10 -5 19 1 23 5 3 10 33 10 66 0 44 4 61 15 65 20 8 19 40 -1 48 -13 5 -15 15 -11 48 3 23 13 45 21 50 9 5 16 16 16 23 0 8 5 15 10 15 6 0 15 11 20 25 13 33 46 33 52 0z m986 -119 c20 -13 47 -36 60 -52 21 -26 23 -37 20 -104 -5 -82 -19 -113 -68 -145 l-30 -20 0 -964 0 -964 92 -93 92 -94 205 0 206 0 897 899 c493 494 909 906 924 916 26 17 53 18 389 12 199 -3 440 -2 535 3 96 5 176 7 179 5 9 -10 -14 -58 -34 -69 -27 -15 -358 -341 -1294 -1273 -437 -436 -798 -793 -803 -793 -4 0 -8 -13 -8 -30 0 -16 5 -30 10 -30 6 0 22 -12 36 -27 114 -126 418 -442 704 -734 69 -70 160 -165 203 -211 208 -220 407 -426 557 -577 91 -92 200 -205 242 -251 42 -47 180 -191 307 -320 173 -175 231 -240 231 -258 0 -22 -3 -24 -32 -16 -18 4 -269 9 -558 11 l-525 3 -69 73 c-38 39 -125 131 -195 203 -123 127 -205 213 -386 404 -49 53 -185 194 -301 315 -116 121 -223 234 -238 250 -30 33 -310 326 -507 530 -133 138 -213 223 -274 293 l-38 42 -198 0 -197 0 -57 -62 c-87 -96 -95 -128 -95 -377 l0 -204 88 -90 c115 -119 122 -126 122 -134 0 -3 7 -14 15 -23 13 -14 15 -111 16 -706 1 -789 -9 -705 101 -818 l58 -59 0 -226 0 -226 45 -44 c27 -26 45 -52 45 -66 0 -13 7 -25 15 -29 20 -7 20 -70 0 -86 -8 -6 -17 -21 -21 -32 -14 -46 -104 -98 -166 -98 -75 1 -141 65 -153 146 -11 85 18 152 73 168 22 7 22 8 22 219 l0 212 -85 85 -84 85 -1 705 -1 705 -94 100 c-52 55 -95 103 -95 108 0 5 -7 15 -15 23 -13 13 -15 60 -15 300 0 282 0 286 25 339 26 58 109 147 188 203 l46 33 242 0 242 0 41 -44 c22 -24 88 -95 146 -157 58 -62 166 -175 240 -251 74 -75 150 -154 168 -176 19 -21 80 -85 135 -143 101 -104 478 -497 673 -700 55 -58 179 -186 275 -285 97 -99 210 -216 252 -259 l76 -79 341 -1 c187 -1 340 1 340 4 0 3 -55 62 -123 130 -67 69 -217 224 -332 344 -116 121 -250 261 -300 311 -49 51 -144 150 -210 220 -66 70 -156 165 -200 209 -99 102 -310 321 -390 407 -163 175 -429 452 -503 524 -45 44 -82 87 -82 95 0 22 1899 1916 1967 1963 18 12 33 27 33 33 0 7 -102 10 -339 8 l-338 -2 -909 -909 -909 -910 -270 2 -270 1 -104 104 c-57 58 -112 123 -122 145 -37 79 -40 164 -39 1090 l1 900 -33 30 c-57 51 -68 77 -68 156 0 62 4 77 26 106 54 71 161 94 232 49z m2757 -862 c55 -3 104 -9 109 -14 10 -10 -54 -99 -71 -100 -7 0 -19 -13 -28 -30 -9 -16 -19 -30 -23 -30 -13 0 -172 -156 -172 -169 0 -6 -5 -11 -11 -11 -7 0 -25 -13 -41 -30 -15 -16 -38 -30 -49 -30 -18 0 -20 -2 -8 -16 11 -13 8 -19 -22 -42 -19 -14 -80 -71 -137 -127 -57 -55 -107 -101 -112 -103 -6 -2 -10 -12 -10 -23 0 -10 -6 -19 -12 -19 -15 0 -118 -97 -118 -111 0 -5 -6 -9 -13 -9 -13 0 -67 -53 -67 -67 0 -4 -25 -28 -55 -52 -30 -24 -55 -47 -55 -52 0 -4 -16 -22 -35 -41 -20 -18 -33 -39 -30 -46 2 -7 -5 -17 -18 -21 -29 -12 -203 -179 -199 -192 1 -6 -2 -8 -7 -4 -6 3 -25 -11 -43 -32 -61 -69 -173 -173 -185 -173 -7 0 -13 -8 -13 -17 0 -9 -41 -58 -91 -108 -50 -49 -97 -97 -103 -105 -28 -34 -56 -89 -56 -107 0 -10 -5 -24 -12 -31 -9 -9 -7 -13 5 -18 9 -3 17 -17 17 -30 0 -13 9 -28 20 -34 11 -6 20 -18 20 -28 0 -18 61 -72 81 -72 6 0 9 -8 6 -20 -3 -13 0 -20 10 -20 21 0 100 -78 107 -106 3 -12 14 -25 24 -29 9 -3 33 -24 52 -47 19 -23 56 -63 83 -90 26 -26 47 -50 47 -52 0 -2 18 -22 41 -44 33 -33 39 -46 33 -64 -6 -20 -5 -21 9 -10 19 16 32 9 67 -32 14 -17 38 -44 53 -61 16 -16 33 -41 38 -54 7 -17 15 -22 29 -18 15 4 27 -6 52 -44 17 -27 36 -49 41 -49 14 0 57 -49 57 -65 0 -16 47 -55 66 -55 7 0 15 -8 18 -17 9 -28 81 -103 98 -103 9 0 21 -13 28 -29 6 -16 69 -86 138 -155 70 -69 138 -138 152 -152 14 -14 37 -37 52 -52 16 -15 28 -33 28 -39 0 -7 5 -13 11 -13 11 0 133 -119 140 -137 2 -5 42 -44 89 -87 47 -44 93 -94 102 -111 9 -18 26 -35 37 -38 11 -3 30 -21 41 -41 12 -19 30 -38 41 -41 22 -7 52 -66 47 -92 -3 -16 -18 -18 -181 -20 -141 -1 -180 1 -191 12 -12 13 -15 12 -20 0 -9 -24 -22 -18 -57 30 -19 24 -42 45 -52 45 -10 0 -22 11 -27 25 -5 14 -14 25 -19 25 -16 0 -56 44 -85 94 -15 25 -31 46 -36 46 -5 0 -26 18 -46 40 -21 22 -41 40 -45 40 -4 0 -30 22 -58 49 -36 34 -49 54 -45 66 5 11 2 15 -7 13 -14 -3 -62 46 -153 154 -26 32 -55 60 -64 63 -10 2 -26 18 -37 35 -11 17 -27 32 -36 35 -9 3 -24 23 -34 45 -10 22 -23 40 -29 40 -15 1 -66 47 -66 60 0 12 -30 43 -64 66 -15 9 -29 27 -32 40 -4 17 -13 24 -30 24 -14 0 -24 6 -24 15 0 8 -36 51 -80 95 -44 44 -80 84 -80 89 0 4 -12 14 -26 22 -14 7 -30 24 -35 37 -5 13 -23 29 -39 35 -17 6 -30 15 -30 20 0 4 -12 20 -27 34 -19 17 -24 27 -15 30 21 8 13 23 -12 23 -30 0 -48 22 -39 46 6 17 5 17 -10 6 -21 -18 -29 -12 -53 37 -10 23 -27 44 -36 47 -10 3 -18 9 -18 14 0 5 -8 11 -18 14 -9 3 -26 22 -37 42 -10 19 -30 45 -45 57 -14 12 -36 38 -49 57 -13 19 -48 54 -78 78 -40 33 -52 48 -48 62 8 26 -25 44 -41 23 -13 -18 -34 -9 -34 14 0 37 -42 83 -101 111 -32 15 -59 32 -59 39 0 8 -16 12 -42 12 -126 -1 -276 -1 -295 0 -79 3 -119 -4 -188 -33 -33 -14 -65 -26 -72 -26 -7 0 -17 -9 -23 -19 -5 -11 -20 -21 -32 -23 -14 -2 -24 -11 -26 -23 -2 -11 -20 -33 -40 -48 l-37 -29 -34 39 c-32 36 -33 41 -27 97 3 33 13 67 22 77 16 17 15 19 -10 29 -24 9 -25 12 -15 31 7 13 9 42 6 70 -3 27 -2 51 3 54 11 7 7 90 -5 119 -12 27 7 51 43 54 28 3 41 -6 98 -62 40 -40 83 -71 110 -82 31 -12 43 -21 39 -31 -9 -24 6 -36 24 -19 14 12 24 13 54 5 21 -5 45 -8 55 -5 9 3 53 2 97 -3 62 -6 83 -4 94 6 10 10 16 11 27 2 15 -12 184 -19 184 -6 0 4 9 7 21 7 11 0 41 16 66 35 25 19 52 35 60 35 15 0 103 88 103 102 0 5 8 8 18 8 12 0 25 14 36 38 18 39 66 84 101 95 11 4 26 21 34 38 7 17 24 34 37 39 13 5 24 14 24 20 0 6 11 16 25 22 14 6 25 16 25 21 0 5 10 20 23 33 12 12 27 27 32 33 12 13 92 86 129 118 14 13 26 30 26 39 0 11 6 14 22 9 17 -6 20 -4 14 10 -4 12 13 36 64 86 38 38 74 69 79 69 16 0 58 44 63 65 2 12 10 19 21 17 10 -2 21 6 26 20 5 13 35 48 67 79 33 31 68 68 79 82 11 14 28 26 38 27 9 0 17 7 17 15 0 9 21 38 47 65 38 40 50 47 61 37 12 -10 14 -8 9 8 -5 15 5 31 42 68 27 26 57 47 65 47 9 0 16 4 16 10 0 14 84 100 98 100 7 0 12 7 12 16 0 9 9 18 20 21 11 3 20 10 20 17 1 20 92 108 106 102 8 -3 18 3 24 14 15 28 52 65 73 73 9 4 17 10 16 14 -4 22 3 33 20 33 11 0 23 5 27 11 3 6 20 9 36 7 16 -3 31 0 35 5 3 5 20 6 37 2 17 -3 76 -8 131 -11z m-3051 -120 c3 -8 6 -824 6 -1814 l1 -1799 32 -36 c18 -20 44 -51 60 -68 l27 -31 0 -467 c0 -450 1 -469 19 -478 10 -6 29 -31 41 -56 12 -25 26 -47 31 -51 16 -9 11 -91 -6 -98 -8 -3 -15 -11 -15 -19 0 -7 -15 -28 -34 -46 -31 -30 -40 -33 -112 -37 -73 -5 -81 -3 -106 20 -38 35 -68 95 -68 137 0 45 43 115 74 123 l22 5 2 459 2 459 -46 49 c-58 63 -75 100 -76 166 -1 29 0 850 1 1824 l1 1771 69 1 c52 0 71 -4 75 -14z m-234 -82 c0 -13 -12 -22 -22 -16 -10 6 -1 24 13 24 5 0 9 -4 9 -8z m0 -98 c0 -9 -5 -14 -12 -12 -18 6 -21 28 -4 28 9 0 16 -7 16 -16z m-8 -269 c0 -5 -5 -11 -11 -13 -6 -2 -11 4 -11 13 0 9 5 15 11 13 6 -2 11 -8 11 -13z m-17 -654 c7 -12 -12 -24 -25 -16 -11 7 -4 25 10 25 5 0 11 -4 15 -9z m25 -246 c0 -8 -6 -15 -14 -15 -17 0 -28 14 -19 24 12 12 33 6 33 -9z m-10 -269 c0 -8 -7 -17 -16 -20 -23 -9 -24 -8 -24 14 0 13 7 20 20 20 11 0 20 -6 20 -14z m10 -59 c0 -17 -38 -53 -46 -44 -7 7 25 57 37 57 5 0 9 -6 9 -13z m0 -172 c10 -13 9 -15 -8 -15 -15 0 -20 5 -16 15 4 8 7 15 9 15 1 0 8 -7 15 -15z m6 -115 c21 0 17 -28 -5 -40 -28 -14 -33 -13 -29 10 2 10 -6 26 -17 34 -17 14 -18 17 -5 26 11 7 18 5 29 -10 7 -11 20 -20 27 -20z m-36 -155 c0 -8 9 -19 20 -25 22 -12 27 -30 9 -30 -18 0 -57 43 -52 57 7 18 23 17 23 -2z m10 -129 c0 -8 -4 -18 -10 -21 -5 -3 -10 3 -10 14 0 12 5 21 10 21 6 0 10 -6 10 -14z m13 -183 c-16 -6 -17 -35 -2 -50 8 -8 7 -17 -3 -32 -16 -26 -33 -22 -34 10 -1 13 -3 29 -5 34 -7 17 35 65 46 53 7 -7 6 -12 -2 -15z m-27 -170 c-11 -11 -19 6 -11 24 8 17 8 17 12 0 3 -10 2 -21 -1 -24z m24 -77 c0 -8 -4 -18 -10 -21 -5 -3 -10 3 -10 14 0 12 5 21 10 21 6 0 10 -6 10 -14z m20 -90 c0 -25 -22 -51 -33 -39 -12 11 -7 61 6 66 18 7 27 -2 27 -27z m-18 -84 c-27 -4 -37 2 -27 17 4 8 13 7 28 -1 l22 -13 -23 -3z m4 -113 c10 -20 12 -34 6 -38 -6 -3 -12 -20 -14 -36 -2 -20 -9 -31 -22 -33 -16 -4 -18 0 -12 28 3 18 6 50 6 71 0 47 14 50 36 8z m4 -179 c0 -11 -4 -20 -9 -20 -5 0 -16 -3 -25 -6 -11 -4 -16 0 -16 14 0 20 12 30 38 31 6 1 12 -8 12 -19z m-4 -162 c-3 -7 -9 -21 -12 -30 -7 -19 -24 -25 -24 -8 0 15 23 50 33 50 5 0 6 -6 3 -12z m-1 -129 c0 -44 -2 -49 -20 -47 -22 3 -23 30 -3 81 15 38 23 25 23 -34z m15 -159 c0 -22 -4 -40 -9 -40 -5 0 -16 -3 -25 -6 -19 -7 -22 20 -6 60 16 42 40 33 40 -14z m-366 -117 c-1 -32 3 -79 9 -106 8 -35 8 -50 -1 -59 -7 -7 -12 -25 -12 -41 0 -25 -2 -28 -15 -17 -19 16 -19 35 1 66 20 29 10 46 -10 18 -12 -15 -17 -16 -27 -7 -16 16 -28 99 -22 150 5 40 8 42 42 46 20 2 36 4 36 5 1 1 0 -24 -1 -55z m807 -976 c-13 -13 -26 -3 -16 12 3 6 11 8 17 5 6 -4 6 -10 -1 -17z"/>
    <path d="M6198 1803 c12 -2 30 -2 40 0 9 3 -1 5 -23 4 -22 0 -30 -2 -17 -4z"/>
    <path d="M3253 1135 c0 -27 2 -38 4 -22 2 15 2 37 0 50 -2 12 -4 0 -4 -28z"/>
    <path d="M3252 1000 c0 -19 2 -27 5 -17 2 9 2 25 0 35 -3 9 -5 1 -5 -18z"/>
    <path d="M2750 3926 c0 -8 5 -18 10 -21 6 -3 10 3 10 14 0 12 -4 21 -10 21 -5 0 -10 -6 -10 -14z"/>
    <path d="M4288 7435 c-2 -2 -16 -6 -32 -9 -16 -3 -32 -9 -35 -14 -3 -5 -17 -12 -31 -16 -14 -4 -34 -11 -45 -16 -94 -41 -116 -50 -128 -50 -8 0 -20 -7 -27 -15 -7 -8 -23 -15 -35 -15 -12 0 -28 -7 -35 -15 -7 -8 -21 -15 -31 -15 -11 0 -27 -4 -37 -9 -9 -6 -39 -20 -67 -32 -27 -12 -58 -25 -67 -30 -10 -5 -26 -9 -37 -9 -10 0 -24 -7 -31 -15 -7 -8 -30 -18 -51 -21 -22 -4 -39 -10 -39 -14 0 -4 -15 -11 -34 -14 -19 -4 -39 -13 -46 -21 -7 -8 -25 -15 -40 -15 -16 0 -30 -7 -34 -15 -3 -8 -15 -15 -26 -15 -12 0 -28 -7 -36 -15 -9 -8 -28 -15 -44 -15 -16 0 -30 -7 -34 -15 -3 -8 -17 -15 -31 -15 -14 0 -28 -7 -31 -15 -4 -9 -19 -15 -35 -15 -34 0 -39 -15 -7 -23 13 -4 41 4 71 18 27 14 54 25 60 25 6 0 29 9 51 19 23 10 73 31 111 46 39 15 75 30 80 34 12 7 119 45 190 67 28 9 73 26 101 39 28 13 92 37 142 54 50 17 99 35 109 40 111 59 205 77 282 55 56 -17 130 -44 186 -68 84 -38 115 -50 170 -68 33 -11 78 -29 99 -39 22 -10 52 -19 67 -19 15 0 29 -6 32 -14 3 -7 18 -17 34 -20 15 -4 45 -18 65 -32 21 -13 48 -24 61 -24 12 0 40 -9 62 -20 22 -11 43 -20 48 -20 5 0 15 -7 24 -15 8 -9 23 -13 33 -10 9 3 23 -1 30 -10 7 -8 18 -15 24 -15 7 0 29 -9 50 -20 22 -10 43 -17 49 -13 6 3 15 0 21 -8 14 -18 61 -39 87 -39 11 0 50 -14 87 -31 37 -16 78 -35 92 -41 14 -5 39 -16 55 -23 17 -8 50 -20 75 -28 62 -21 171 -65 212 -88 10 -5 27 -9 38 -9 23 0 95 -34 105 -50 3 -5 18 -10 32 -10 28 0 128 -43 138 -60 3 -6 17 -10 31 -10 13 0 41 -9 61 -20 21 -11 49 -20 63 -20 14 0 40 -9 58 -20 18 -11 38 -18 43 -14 6 3 18 -1 29 -11 10 -9 40 -24 66 -35 95 -36 137 -64 162 -109 18 -33 21 -45 12 -56 -9 -11 -9 -30 -2 -72 6 -33 6 -65 1 -74 -4 -9 -5 -20 -1 -23 4 -4 8 -65 8 -134 1 -70 5 -135 9 -145 4 -9 3 -23 -3 -30 -5 -6 -8 -41 -7 -77 7 -118 19 -983 16 -1065 0 -11 -1 -81 -1 -155 0 -134 0 -135 -27 -157 -21 -17 -31 -19 -48 -11 -13 6 -27 20 -33 32 -5 11 -19 41 -31 66 -17 36 -20 52 -12 71 6 16 6 31 0 40 -5 8 -8 68 -7 134 1 104 -2 126 -20 168 -12 27 -19 53 -16 58 5 9 -12 34 -82 117 -47 54 -148 132 -173 132 -11 0 -33 12 -50 26 -20 16 -39 24 -51 21 -11 -3 -41 1 -67 9 -26 8 -54 12 -62 9 -7 -3 -20 0 -27 6 -7 6 -19 7 -26 3 -7 -4 -32 -11 -55 -16 -144 -27 -184 -42 -222 -83 -13 -14 -34 -25 -48 -25 -18 0 -38 -14 -67 -47 -40 -45 -106 -146 -106 -162 0 -4 -9 -26 -20 -49 -11 -22 -20 -49 -20 -59 0 -10 -6 -29 -13 -43 -9 -18 -13 -65 -12 -155 1 -85 -2 -132 -9 -137 -8 -5 -7 -14 2 -29 12 -18 12 -23 0 -30 -7 -5 -21 -9 -31 -9 -14 0 -17 -5 -12 -20 4 -12 2 -20 -5 -20 -7 0 -31 -18 -54 -41 -32 -30 -42 -46 -39 -63 3 -13 0 -27 -6 -30 -16 -10 -14 -59 3 -92 12 -21 12 -32 3 -48 -18 -33 -16 -145 2 -156 13 -7 14 -12 3 -29 -9 -17 -10 -25 0 -40 10 -16 9 -25 -2 -47 -12 -21 -12 -28 -2 -31 16 -6 15 -32 -2 -39 -19 -7 -18 -72 2 -106 12 -21 13 -30 4 -41 -7 -8 -8 -17 -4 -21 6 -7 10 -43 12 -128 1 -14 7 -29 15 -32 9 -3 15 -19 15 -41 0 -19 5 -35 10 -35 6 0 10 -9 10 -20 0 -12 16 -36 35 -56 19 -19 35 -37 35 -41 0 -15 52 -73 66 -73 22 0 17 14 -16 46 -16 16 -30 36 -30 44 -1 8 -14 26 -30 40 -17 13 -30 32 -30 42 0 10 -7 21 -15 24 -8 4 -15 19 -15 35 0 16 -7 32 -17 38 -17 9 -18 39 -17 425 0 375 2 417 17 434 9 10 17 24 17 30 0 6 10 14 23 18 12 3 29 13 38 20 9 8 27 13 40 12 l24 -3 0 190 c1 154 4 202 19 253 10 34 22 62 27 62 5 0 9 11 9 24 0 14 14 39 34 59 18 19 39 48 46 64 8 18 32 40 57 54 24 13 43 27 43 30 0 12 140 79 165 79 12 0 39 7 58 15 20 8 65 15 100 15 45 0 68 -5 77 -15 7 -9 29 -15 52 -15 25 0 41 -5 44 -15 4 -8 16 -15 29 -15 12 0 28 -7 35 -15 7 -8 19 -15 26 -15 16 0 154 -132 154 -147 0 -6 7 -13 15 -17 8 -3 15 -14 15 -24 0 -11 7 -25 15 -32 8 -7 15 -23 15 -35 0 -12 7 -28 15 -35 13 -11 15 -47 14 -239 l-2 -226 36 3 c40 4 74 -23 123 -97 l24 -38 -2 -391 c-2 -296 -6 -394 -15 -404 -7 -6 -13 -22 -13 -34 0 -12 -7 -27 -15 -34 -8 -7 -15 -21 -15 -31 0 -9 -7 -24 -15 -33 -8 -8 -15 -19 -15 -24 0 -5 -7 -15 -15 -22 -8 -7 -15 -19 -15 -26 0 -8 7 -14 15 -14 8 0 15 5 15 11 0 8 4 9 13 0 17 -13 27 -5 27 24 0 11 4 25 10 31 17 17 51 155 58 234 4 41 11 81 16 89 6 10 12 2629 6 2845 0 4 -9 6 -19 3 -11 -2 -32 4 -48 14 -15 10 -38 19 -50 19 -13 0 -23 4 -23 9 0 5 -15 13 -32 16 -18 4 -42 14 -53 21 -11 8 -30 14 -42 14 -13 0 -23 5 -23 10 0 6 -6 10 -12 10 -7 1 -31 9 -53 20 -22 11 -50 19 -62 20 -13 0 -23 5 -23 10 0 6 -11 10 -24 10 -14 0 -31 7 -40 15 -8 8 -23 15 -33 15 -11 0 -28 7 -39 15 -10 8 -27 15 -37 15 -9 0 -34 9 -54 20 -21 11 -43 20 -49 20 -7 0 -25 7 -40 15 -16 8 -37 15 -46 15 -10 0 -18 4 -18 9 0 5 -16 12 -35 15 -19 4 -35 11 -35 15 0 5 -16 12 -35 15 -19 4 -35 11 -35 15 0 5 -18 11 -40 15 -22 3 -40 10 -40 15 0 5 -17 12 -37 16 -21 4 -42 10 -48 15 -5 4 -23 10 -39 14 -15 4 -35 14 -43 21 -8 8 -25 15 -38 15 -13 0 -27 5 -30 10 -3 6 -15 10 -25 10 -10 0 -25 6 -32 13 -7 8 -30 17 -50 21 -20 3 -41 13 -48 21 -7 8 -21 15 -31 15 -11 0 -27 4 -37 9 -59 30 -112 51 -128 51 -10 0 -28 7 -38 15 -11 8 -30 15 -43 15 -13 0 -23 4 -23 9 0 5 -13 12 -30 16 -16 4 -30 11 -30 16 0 5 -9 9 -21 9 -11 0 -41 9 -67 21 -26 11 -58 25 -72 30 -14 6 -38 17 -53 25 -16 8 -36 14 -45 14 -9 0 -30 9 -47 20 -16 11 -40 20 -51 20 -12 0 -27 7 -35 16 -7 8 -21 13 -30 11 -10 -3 -23 1 -30 9 -6 8 -18 14 -26 14 -14 0 -90 30 -125 50 -10 6 -23 10 -29 10 -7 0 -33 10 -58 21 -25 12 -55 25 -66 29 -11 4 -32 12 -47 18 -14 6 -28 9 -30 7z"/>
    <path d="M5084 7315 c10 -8 23 -12 28 -9 14 9 -2 24 -25 24 -21 -1 -21 -1 -3 -15z"/>
    <path d="M3023 7223 c-20 -7 -15 -23 7 -23 11 0 20 4 20 9 0 13 -12 19 -27 14z"/>
    <path d="M2940 7180 c0 -5 9 -10 20 -10 11 0 20 5 20 10 0 6 -9 10 -20 10 -11 0 -20 -4 -20 -10z"/>
    <path d="M5815 7001 c-6 -11 9 -23 19 -14 9 9 7 23 -3 23 -6 0 -12 -4 -16 -9z"/>
    <path d="M3060 6931 c0 -13 30 -22 51 -16 31 10 21 25 -16 25 -19 0 -35 -4 -35 -9z"/>
    <path d="M6234 6796 c-4 -9 -4 -20 0 -23 3 -4 12 -1 18 5 9 9 9 15 0 24 -9 9 -13 7 -18 -6z"/>
    <path d="M6596 6721 c-3 -5 1 -11 9 -15 15 -6 29 7 18 18 -9 9 -21 8 -27 -3z"/>
    <path d="M6810 6605 c0 -8 5 -15 10 -15 6 0 10 7 10 15 0 8 -4 15 -10 15 -5 0 -10 -7 -10 -15z"/>
    <path d="M6960 6570 c0 -5 9 -10 20 -10 11 0 20 5 20 10 0 6 -9 10 -20 10 -11 0 -20 -4 -20 -10z"/>
    <path d="M7010 5820 c0 -5 7 -10 15 -10 8 0 15 5 15 10 0 6 -7 10 -15 10 -8 0 -15 -4 -15 -10z"/>
    <path d="M6201 4980 c-8 -4 -20 -6 -28 -3 -18 7 -163 -19 -163 -29 0 -4 -6 -8 -13 -8 -8 0 -24 -9 -37 -20 -13 -11 -26 -20 -30 -20 -12 0 -80 -73 -80 -86 0 -7 -6 -19 -13 -26 -8 -7 -16 -33 -20 -57 -3 -24 -10 -47 -17 -51 -7 -4 -11 -67 -12 -184 l-2 -177 370 0 369 0 -3 198 c-3 164 -6 201 -19 215 -9 10 -13 21 -10 25 19 19 -109 173 -144 173 -10 0 -24 6 -31 14 -8 7 -30 17 -49 21 -19 4 -39 11 -44 16 -6 4 -17 4 -24 -1z m54 -70 c22 -11 47 -20 56 -20 39 0 154 -149 147 -191 -2 -9 2 -22 9 -30 6 -8 12 -59 13 -124 3 -170 3 -175 -19 -175 -11 0 -23 5 -27 11 -5 8 -9 7 -15 -4 -10 -16 -109 -22 -109 -6 0 5 -9 9 -20 9 -11 0 -20 -5 -20 -11 0 -15 -61 -3 -72 14 -6 9 -11 8 -19 -5 -11 -19 -64 -25 -74 -8 -4 7 -13 6 -26 -1 -15 -7 -29 -7 -51 0 -20 7 -36 7 -48 1 -72 -38 -146 23 -151 125 -6 105 0 151 25 188 18 26 21 38 13 47 -9 8 -7 15 9 28 11 9 34 34 49 55 43 58 118 95 220 107 33 4 62 8 65 8 3 1 23 -7 45 -18z"/>
    <path d="M7143 4214 c-3 -8 -1 -20 6 -27 8 -8 11 -4 11 16 0 30 -7 35 -17 11z"/>
    <path d="M7144 4157 c-9 -24 6 -44 18 -22 7 11 6 21 -1 28 -7 7 -12 6 -17 -6z"/>
    <path d="M5639 4150 c0 -3 0 -165 1 -360 1 -298 3 -357 15 -366 8 -6 15 -23 15 -36 0 -14 7 -31 15 -38 8 -7 15 -19 15 -27 0 -7 7 -16 15 -19 8 -4 15 -10 15 -15 0 -12 38 -49 50 -49 6 0 13 -7 16 -15 4 -8 15 -15 25 -15 11 0 22 -7 25 -15 4 -8 18 -15 33 -15 l26 1 -35 29 c-19 16 -42 30 -50 30 -8 0 -28 14 -44 30 -16 17 -33 30 -38 30 -5 0 -7 8 -4 18 4 12 -3 27 -19 42 -13 12 -29 37 -34 54 -9 30 -8 553 1 624 10 69 -4 67 429 68 214 1 392 -3 395 -7 3 -5 14 -5 24 1 30 16 61 12 96 -12 41 -28 45 -49 49 -228 4 -180 3 -172 14 -166 5 3 9 81 10 173 1 93 3 187 5 211 6 78 43 72 -542 75 -287 1 -522 0 -523 -3z"/>
    <path d="M7140 4053 c0 -35 3 -44 10 -33 13 20 13 80 0 80 -5 0 -10 -21 -10 -47z"/>
    <path d="M6088 3952 c-32 -16 -48 -30 -48 -43 0 -11 -7 -22 -15 -25 -21 -8 -22 -156 -1 -173 8 -7 12 -21 8 -33 -3 -13 1 -24 12 -30 16 -9 16 -11 2 -27 -13 -14 -14 -29 -8 -74 4 -32 12 -58 17 -58 6 1 13 44 16 98 6 88 5 100 -12 115 -16 13 -19 30 -19 92 0 43 4 76 10 76 5 0 16 14 25 30 12 23 22 30 46 30 17 0 32 6 35 15 4 8 16 15 29 15 12 0 28 -7 35 -15 7 -8 21 -15 31 -15 11 0 19 -5 19 -10 0 -6 14 -24 30 -40 26 -26 30 -36 30 -86 0 -47 -5 -62 -30 -94 l-30 -38 0 -141 c0 -87 4 -141 10 -141 6 0 11 19 12 43 1 23 4 62 5 87 2 25 5 59 6 77 1 17 5 35 10 39 4 4 7 16 7 26 0 10 6 29 14 41 8 12 18 49 21 83 6 50 4 63 -10 77 -9 10 -14 24 -11 32 6 16 -16 43 -58 70 -41 27 -133 26 -188 -3z"/>
    <path d="M7145 3878 c-4 -10 -4 -26 0 -35 8 -17 8 -17 12 0 3 9 3 25 0 35 -4 16 -4 16 -12 0z"/>
    <path d="M6222 3868 c6 -18 28 -21 28 -4 0 9 -7 16 -16 16 -9 0 -14 -5 -12 -12z"/>
    <path d="M7140 3746 c0 -25 5 -46 10 -46 6 0 10 18 10 39 0 22 -4 43 -10 46 -6 4 -10 -12 -10 -39z"/>
    <path d="M6676 3652 c-3 -5 -4 -47 -2 -93 5 -90 -7 -152 -34 -184 -26 -31 -31 -42 -24 -59 8 -22 24 -20 24 3 0 10 7 24 15 31 8 7 15 20 15 30 0 10 7 23 15 30 17 14 22 175 5 185 -6 4 -5 13 2 25 9 14 10 22 1 31 -7 7 -13 7 -17 1z"/>
    <path d="M6050 3361 c0 -15 29 -20 98 -19 78 1 89 13 19 22 -74 9 -117 7 -117 -3z"/>
    <path d="M6570 3271 c-5 -11 -10 -22 -10 -26 0 -9 49 28 50 38 0 15 -30 6 -40 -12z"/>
    <path d="M6454 3195 c-18 -14 -18 -14 9 -15 17 0 27 5 27 15 0 19 -11 19 -36 0z"/>
    <path d="M5987 3179 c-9 -6 -22 -7 -27 -4 -14 9 -52 -4 -45 -16 7 -10 61 -11 87 -1 10 4 14 12 10 19 -5 8 -13 8 -25 2z"/>
    <path d="M6317 3173 c-9 -2 -15 -9 -12 -14 8 -12 86 -11 105 1 11 7 7 10 -17 10 -17 0 -37 2 -45 4 -7 2 -21 2 -31 -1z"/>
    <path d="M5682 3076 c31 -28 58 -40 58 -25 0 16 -42 48 -64 49 -17 0 -16 -3 6 -24z"/>
    <path d="M5750 3033 c1 -11 68 -41 109 -49 26 -6 33 -4 29 7 -2 8 -20 15 -39 17 -19 2 -38 10 -42 18 -8 14 -57 20 -57 7z"/>
    <path d="M6535 3031 c-6 -11 9 -23 19 -14 9 9 7 23 -3 23 -6 0 -12 -4 -16 -9z"/>
    <path d="M6465 3000 c-3 -5 3 -10 15 -10 12 0 18 5 15 10 -3 6 -10 10 -15 10 -5 0 -12 -4 -15 -10z"/>
    <path d="M5902 2968 c4 -11 29 -12 111 -8 31 2 31 2 7 10 -40 13 -122 12 -118 -2z"/>
    <path d="M3592 1101 c2 -7 7 -12 11 -12 12 1 9 15 -3 20 -7 2 -11 -2 -8 -8z"/>
    <path d="M3650 1060 c0 -5 7 -10 15 -10 8 0 15 5 15 10 0 6 -7 10 -15 10 -8 0 -15 -4 -15 -10z"/>
    <path d="M3930 886 c0 -9 7 -16 16 -16 17 0 14 22 -4 28 -7 2 -12 -3 -12 -12z"/>
    <path d="M4660 880 c0 -5 7 -10 15 -10 8 0 15 5 15 10 0 6 -7 10 -15 10 -8 0 -15 -4 -15 -10z"/>
    <path d="M4052 829 c3 -8 15 -16 29 -17 13 -2 28 -10 32 -18 8 -15 27 -19 27 -6 -1 10 -41 38 -69 47 -17 5 -22 4 -19 -6z"/>
    <path d="M4180 760 c0 -5 9 -10 20 -10 11 0 20 5 20 10 0 6 -9 10 -20 10 -11 0 -20 -4 -20 -10z"/>
    <path d="M4256 742 c-13 -12 -5 -22 19 -22 14 0 25 4 25 9 0 10 -36 21 -44 13z"/>
  </g>
</svg>