 <svg  version="1.0" xmlns="http://www.w3.org/2000/svg"  width="900.000000pt" height="942.000000pt" viewBox="0 0 900.000000 942.000000"  preserveAspectRatio="xMidYMid meet">  <g transform="translate(0.000000,942.000000) scale(0.100000,-0.100000)" fill="#0743cf" stroke="none"> <path d="M4730 8715 c-8 -9 -22 -12 -41 -8 -16 3 -35 0 -43 -6 -8 -7 -25 -9 -38 -6 -16 4 -29 1 -37 -9 -7 -9 -28 -18 -46 -22 -19 -3 -36 -12 -39 -20 -3 -8 -14 -14 -25 -14 -11 0 -22 -4 -25 -9 -3 -5 -21 -12 -39 -15 -18 -3 -51 -15 -72 -26 -22 -11 -53 -20 -70 -20 -25 -1 -27 -2 -12 -11 29 -17 8 -30 -37 -24 -38 6 -44 4 -49 -14 -3 -13 -13 -21 -26 -21 -12 0 -24 -7 -27 -15 -4 -8 -19 -15 -35 -15 -25 0 -84 -26 -116 -51 -6 -6 -22 -7 -36 -4 -17 5 -26 2 -31 -10 -4 -11 -12 -14 -26 -10 -15 5 -22 0 -30 -20 -9 -23 -13 -25 -26 -14 -13 10 -19 8 -40 -14 -14 -15 -33 -27 -42 -27 -10 0 -27 -7 -38 -15 -10 -8 -25 -15 -33 -15 -19 0 -99 -39 -107 -51 -3 -5 -16 -9 -28 -9 -13 0 -29 -7 -36 -15 -7 -8 -27 -17 -46 -21 -44 -8 -44 -24 1 -24 24 0 35 5 35 15 0 10 11 15 35 15 24 0 35 5 35 15 0 11 11 15 40 15 29 0 40 4 40 15 0 11 11 15 35 15 22 0 38 6 41 15 4 8 18 15 34 15 16 0 30 7 34 15 3 9 18 15 34 15 16 0 35 7 42 15 7 8 25 15 40 15 16 0 30 7 34 15 3 9 18 15 40 15 21 0 36 6 40 15 3 8 16 15 30 15 14 0 27 4 30 9 3 5 21 12 40 15 19 4 37 13 40 21 3 9 19 15 40 15 21 0 36 6 40 15 3 9 18 15 35 15 16 0 31 6 35 15 3 8 16 15 29 15 14 0 30 7 37 15 7 8 23 15 37 15 13 0 31 7 39 15 9 8 25 15 37 15 12 0 49 14 82 30 33 16 67 30 76 30 9 0 22 6 28 14 23 27 171 23 171 -4 0 -6 9 -10 21 -10 11 0 33 -6 47 -14 15 -8 47 -21 72 -31 25 -9 58 -23 73 -31 16 -8 40 -14 53 -14 14 0 27 -7 30 -15 4 -8 18 -15 34 -15 15 0 33 -6 39 -14 7 -8 27 -17 46 -20 19 -4 35 -11 35 -16 0 -6 13 -10 28 -10 16 0 37 -7 48 -15 10 -8 29 -15 40 -15 12 0 27 -7 34 -15 7 -8 19 -15 27 -15 14 0 43 -11 118 -45 17 -8 40 -16 53 -20 12 -3 22 -11 22 -16 0 -5 10 -9 23 -9 13 0 32 -7 43 -15 10 -8 32 -15 47 -15 15 0 30 -7 33 -15 4 -9 19 -15 40 -15 22 0 37 -6 40 -15 4 -8 18 -15 33 -15 15 0 36 -7 47 -15 10 -8 25 -15 32 -15 7 0 34 -9 60 -21 26 -11 58 -25 72 -31 14 -5 39 -16 55 -23 17 -8 40 -16 53 -20 12 -3 22 -11 22 -16 0 -5 16 -9 35 -9 22 0 38 -6 41 -15 4 -8 18 -15 34 -15 15 0 33 -7 40 -15 7 -8 26 -15 42 -15 16 0 31 -6 34 -15 4 -9 19 -15 40 -15 22 0 37 -6 40 -15 4 -8 18 -15 34 -15 15 0 33 -7 40 -15 7 -8 19 -15 27 -15 15 0 65 -20 116 -46 16 -8 37 -14 48 -14 11 0 22 -7 25 -15 4 -8 18 -15 34 -15 15 0 33 -7 40 -15 7 -8 25 -15 40 -15 15 0 33 -7 40 -15 7 -8 26 -15 42 -15 16 0 31 -6 34 -15 4 -8 18 -15 33 -15 15 0 36 -7 47 -15 10 -8 29 -15 40 -15 12 0 27 -7 34 -15 7 -8 22 -15 34 -15 12 0 31 -7 42 -15 10 -8 29 -15 40 -15 12 0 27 -7 34 -15 7 -8 23 -15 35 -15 12 0 28 -7 35 -15 7 -8 23 -15 36 -15 12 0 29 -7 38 -15 8 -8 28 -15 44 -15 17 0 32 -6 36 -15 3 -9 18 -15 36 -15 18 0 33 -6 36 -15 4 -8 17 -15 31 -15 14 0 37 -6 51 -13 53 -27 98 -45 125 -51 15 -4 27 -11 27 -16 0 -6 12 -10 26 -10 14 0 38 -6 52 -14 15 -8 35 -17 44 -20 16 -5 17 -55 18 -668 2 -611 5 -1035 9 -1065 0 -7 8 -13 16 -13 18 0 21 60 4 92 -8 14 -8 23 0 31 14 14 14 70 0 84 -7 7 -8 17 -3 25 13 19 18 146 13 323 0 28 2 85 6 127 6 58 5 81 -5 93 -10 12 -10 19 -2 27 8 8 9 36 5 86 -5 58 -3 76 8 83 8 5 9 9 3 9 -7 0 -10 60 -9 183 1 107 -3 189 -9 199 -7 11 -5 23 7 41 9 15 13 28 9 31 -5 3 -7 60 -6 128 4 173 -10 202 -128 270 -16 9 -37 23 -47 32 -13 12 -20 13 -29 4 -9 -9 -17 -7 -34 9 -28 25 -98 52 -117 45 -8 -2 -18 3 -23 12 -5 9 -15 16 -22 16 -7 0 -31 9 -53 20 -23 11 -48 17 -56 14 -7 -2 -20 2 -27 11 -7 8 -18 15 -26 15 -17 0 -85 32 -102 48 -7 6 -27 12 -43 12 -16 0 -43 10 -58 21 -16 12 -34 18 -40 15 -6 -4 -18 0 -27 8 -8 9 -28 16 -43 16 -19 0 -32 8 -40 24 -11 20 -21 24 -61 24 -35 0 -53 5 -69 21 -11 11 -32 21 -45 21 -13 0 -26 7 -30 15 -3 9 -18 15 -36 15 -27 0 -43 5 -90 31 -65 36 -122 59 -131 54 -5 -4 -18 -1 -27 7 -35 28 -63 38 -86 32 -18 -4 -25 -1 -28 11 -3 19 -68 45 -110 45 -15 0 -35 8 -45 18 -10 10 -45 26 -78 37 -33 10 -69 26 -80 36 -19 15 -38 22 -108 36 -16 3 -31 12 -34 19 -3 8 -16 14 -29 14 -13 0 -40 11 -60 25 -20 14 -43 25 -51 25 -7 0 -30 7 -51 16 -20 9 -47 16 -58 15 -12 -1 -24 5 -27 13 -4 9 -14 16 -24 16 -10 0 -30 6 -44 14 -14 7 -37 16 -51 19 -15 4 -28 16 -31 29 -6 21 -7 21 -25 5 -17 -16 -21 -16 -32 -2 -7 8 -23 15 -36 15 -13 0 -24 5 -24 10 0 6 -7 10 -17 10 -9 0 -31 11 -49 25 -38 29 -50 31 -58 9 -5 -13 -12 -10 -37 15 -29 30 -44 35 -81 32 -10 -1 -18 2 -18 8 0 11 -56 41 -79 41 -9 1 -34 9 -56 20 -22 11 -45 19 -51 20 -6 0 -17 7 -24 15 -7 8 -26 15 -42 15 -36 0 -68 16 -68 34 0 10 -14 13 -50 11 -40 -2 -53 1 -60 15 -12 23 -37 32 -58 21 -12 -6 -24 -4 -37 5 -24 18 -39 18 -55 -1z"/> <path d="M4800 8580 c0 -5 9 -10 21 -10 11 0 17 5 14 10 -3 6 -13 10 -21 10 -8 0 -14 -4 -14 -10z"/> <path d="M4885 8549 c-4 -6 -5 -13 -2 -16 7 -7 27 6 27 18 0 12 -17 12 -25 -2z"/> <path d="M4965 8520 c-8 -12 20 -24 35 -15 5 3 10 10 10 16 0 12 -37 12 -45 -1z"/> <path d="M5060 8484 c0 -9 5 -14 12 -12 18 6 21 28 4 28 -9 0 -16 -7 -16 -16z"/> <path d="M5142 8458 c6 -18 28 -21 28 -4 0 9 -7 16 -16 16 -9 0 -14 -5 -12 -12z"/> <path d="M4700 8370 c-31 -17 -62 -30 -135 -59 -11 -5 -41 -18 -66 -30 -25 -11 -52 -21 -60 -21 -8 0 -23 -7 -33 -15 -11 -8 -30 -15 -42 -15 -12 0 -24 -7 -28 -15 -3 -9 -18 -15 -40 -15 -21 0 -36 -6 -40 -15 -3 -8 -13 -15 -23 -15 -10 0 -45 -14 -78 -30 -33 -16 -67 -30 -75 -30 -8 0 -24 -7 -34 -15 -10 -8 -23 -12 -28 -9 -5 3 -18 -2 -30 -12 -11 -10 -34 -19 -50 -20 -17 -1 -35 -9 -40 -18 -5 -9 -22 -16 -37 -16 -16 0 -34 -7 -41 -15 -7 -8 -21 -15 -32 -15 -10 0 -21 -7 -24 -15 -4 -8 -18 -15 -34 -15 -15 0 -52 -13 -83 -30 -31 -16 -65 -30 -76 -30 -10 0 -24 -7 -31 -15 -7 -8 -23 -15 -35 -15 -13 0 -25 -7 -29 -15 -3 -9 -18 -15 -34 -15 -16 0 -35 -7 -42 -15 -7 -8 -26 -15 -42 -15 -19 0 -28 -4 -26 -12 7 -21 37 -21 66 -1 15 10 34 18 42 19 30 1 75 17 99 36 13 10 33 18 44 18 11 0 43 11 71 24 28 14 78 34 111 46 33 12 72 28 87 36 27 15 63 28 208 78 41 15 86 32 100 40 14 7 38 16 54 20 16 4 58 20 92 37 35 16 71 29 80 29 9 0 51 16 94 35 43 19 84 35 91 35 8 0 37 11 64 25 52 25 122 32 153 15 36 -20 109 -48 142 -55 19 -4 44 -12 55 -19 11 -7 47 -21 80 -31 33 -10 67 -23 75 -31 8 -7 29 -15 45 -19 34 -7 60 -18 125 -50 25 -13 63 -28 85 -35 22 -7 51 -18 65 -25 38 -19 180 -76 305 -122 22 -8 77 -33 123 -54 46 -22 97 -42 115 -46 18 -3 59 -19 92 -35 33 -16 72 -31 86 -33 15 -2 42 -13 60 -24 19 -12 42 -21 53 -21 10 0 35 -9 55 -20 50 -27 151 -70 165 -70 12 0 216 -80 281 -110 22 -10 78 -33 123 -49 46 -17 93 -38 105 -46 12 -8 31 -15 44 -15 12 0 25 -4 28 -10 3 -5 16 -10 28 -10 13 0 31 -6 42 -13 11 -7 38 -19 60 -26 41 -14 117 -46 147 -62 10 -5 26 -9 36 -9 9 0 27 -7 40 -15 12 -9 41 -22 64 -30 116 -37 188 -78 188 -108 1 -7 9 -30 20 -52 24 -49 24 -55 5 -55 -19 0 -19 -27 -1 -62 8 -16 11 -28 5 -28 -14 0 -11 -38 4 -43 9 -3 9 -9 -2 -28 -7 -13 -10 -24 -5 -26 5 -2 9 -50 8 -108 -1 -58 2 -107 7 -110 13 -9 11 -69 -3 -83 -10 -10 -10 -17 1 -34 11 -17 11 -22 -1 -29 -10 -7 -11 -12 -1 -28 11 -17 10 -22 -4 -30 -16 -9 -17 -11 -1 -28 10 -10 14 -24 9 -31 -4 -6 -3 -49 2 -94 4 -45 5 -93 1 -107 -4 -15 -6 -30 -4 -36 7 -27 6 -181 -2 -192 -5 -7 -5 -14 1 -17 10 -7 7 -328 -4 -346 -3 -5 -2 -10 3 -10 15 0 24 -31 13 -44 -6 -7 -6 -18 -1 -26 5 -8 5 -21 1 -29 -8 -17 -4 -181 5 -242 3 -20 1 -46 -5 -57 -6 -10 -7 -23 -3 -27 11 -11 11 -88 0 -112 -8 -16 -8 -26 1 -37 7 -9 10 -24 6 -37 -4 -11 -9 -51 -10 -88 -2 -36 -7 -80 -10 -98 -5 -23 -3 -37 9 -48 9 -9 13 -22 9 -28 -4 -7 -12 -2 -22 13 -28 42 -70 80 -88 80 -24 0 -75 79 -69 105 3 11 -1 28 -9 39 -10 13 -11 25 -5 42 9 23 5 151 -6 187 -3 9 0 33 6 52 10 31 9 40 -9 71 -12 20 -20 48 -19 62 1 15 -6 42 -16 60 -9 18 -16 45 -14 59 2 19 -2 27 -15 29 -25 3 -67 51 -67 75 0 10 -4 19 -9 19 -5 0 -13 9 -16 20 -3 11 -12 20 -18 20 -7 0 -29 16 -49 36 -21 19 -42 33 -48 29 -7 -4 -14 2 -17 14 -3 14 -18 24 -45 31 -21 6 -48 20 -60 32 -17 17 -29 20 -68 15 -42 -5 -49 -3 -53 15 -4 13 -10 17 -18 12 -7 -4 -28 -7 -46 -6 -20 2 -33 -2 -33 -9 0 -8 -4 -8 -15 1 -21 17 -205 -5 -255 -30 -19 -10 -48 -23 -63 -29 -15 -6 -36 -25 -45 -41 -14 -25 -22 -29 -42 -25 -22 5 -33 -4 -75 -52 -28 -31 -62 -70 -77 -86 -19 -20 -28 -41 -28 -63 0 -24 -5 -34 -15 -34 -8 0 -15 -9 -15 -19 0 -11 -4 -22 -9 -25 -5 -3 -12 -18 -16 -33 -3 -15 -12 -34 -18 -42 -6 -7 -12 -32 -13 -55 -2 -22 -5 -74 -8 -113 -3 -40 -2 -83 3 -95 6 -16 3 -32 -9 -53 -15 -27 -15 -31 -1 -41 13 -10 14 -16 2 -37 -7 -14 -10 -30 -7 -36 12 -19 -4 -51 -26 -51 -11 0 -22 -8 -25 -20 -4 -13 -14 -20 -30 -20 -19 0 -24 -5 -21 -22 2 -15 -6 -26 -27 -38 -24 -13 -31 -24 -33 -56 -2 -21 -8 -43 -13 -49 -12 -12 -12 -82 0 -90 6 -3 7 -51 4 -113 -4 -73 -2 -115 6 -130 10 -18 8 -23 -8 -34 -19 -11 -19 -12 1 -28 19 -15 20 -19 7 -53 -11 -30 -11 -40 1 -63 13 -23 13 -27 -4 -39 -10 -8 -16 -18 -13 -22 3 -5 8 -56 11 -113 7 -126 16 -190 26 -190 7 0 8 63 9 626 l1 291 54 57 c50 52 58 56 100 56 l45 0 -7 38 c-13 69 -8 410 6 424 6 6 12 31 12 55 0 30 5 45 15 49 8 4 18 24 21 45 4 21 10 39 15 39 5 0 9 7 9 15 0 9 7 18 15 21 8 4 15 11 15 18 0 6 14 25 30 43 17 18 30 37 30 42 0 6 4 11 8 11 5 0 19 9 32 20 13 11 29 20 35 20 7 0 15 7 19 15 3 8 12 15 20 15 7 0 16 7 20 15 3 8 13 15 23 15 10 0 27 7 37 15 11 8 32 15 48 15 18 0 28 5 28 15 0 13 26 15 174 15 142 0 177 -3 190 -15 8 -8 26 -15 41 -15 14 0 28 -7 31 -15 4 -8 16 -15 29 -15 12 0 28 -7 35 -15 7 -8 18 -15 25 -15 22 0 185 -184 185 -208 0 -5 7 -15 15 -22 8 -7 15 -20 15 -30 0 -10 7 -20 15 -24 10 -4 15 -19 15 -49 0 -25 6 -49 14 -56 10 -9 13 -59 12 -246 l-1 -235 40 0 c36 0 46 -6 93 -56 31 -34 52 -66 52 -80 0 -12 5 -24 12 -26 7 -3 11 -33 11 -89 -1 -46 4 -90 10 -97 8 -10 7 -16 -1 -21 -11 -6 -15 -205 -12 -575 0 -22 -4 -44 -9 -50 -5 -6 -12 -33 -15 -59 -6 -41 -36 -115 -67 -167 -5 -8 -13 -25 -19 -37 -5 -13 -14 -23 -20 -23 -5 0 -10 -7 -10 -16 0 -11 6 -15 20 -11 11 3 23 0 26 -5 4 -6 13 1 21 16 7 14 18 26 23 26 6 0 10 15 10 33 0 18 6 41 14 52 7 11 17 43 21 70 4 28 11 55 15 60 5 6 11 49 15 97 3 48 10 102 16 120 5 20 9 659 9 1647 1 1710 3 1630 -43 1631 -11 0 -31 7 -45 14 -15 8 -45 22 -67 31 -22 9 -58 25 -81 36 -23 10 -51 19 -63 19 -11 0 -21 5 -21 10 0 6 -8 10 -17 10 -10 1 -36 9 -58 20 -22 11 -44 19 -48 20 -5 0 -15 7 -24 16 -9 8 -22 13 -30 10 -8 -4 -27 0 -41 7 -15 8 -42 21 -60 30 -19 9 -40 17 -48 17 -8 0 -31 9 -51 20 -21 11 -43 20 -50 20 -8 0 -21 4 -31 9 -9 4 -35 16 -57 25 -22 10 -53 24 -68 32 -16 8 -35 14 -43 14 -8 0 -36 9 -62 21 -26 11 -56 24 -67 28 -11 5 -41 18 -66 30 -25 11 -51 21 -58 21 -11 0 -20 4 -79 33 -19 9 -47 17 -63 17 -17 0 -32 6 -35 15 -4 8 -17 15 -30 15 -14 0 -27 7 -30 15 -4 8 -18 15 -33 15 -15 0 -36 7 -47 15 -10 8 -25 15 -32 15 -8 0 -30 7 -50 16 -21 8 -53 22 -72 31 -19 8 -48 21 -63 29 -16 8 -34 14 -40 14 -7 0 -24 6 -38 14 -14 7 -37 16 -52 20 -15 3 -27 11 -27 16 0 6 -15 10 -34 10 -18 0 -39 7 -46 15 -7 8 -23 15 -35 15 -12 0 -28 7 -35 15 -7 8 -25 15 -40 15 -15 0 -33 7 -40 15 -7 8 -20 15 -29 15 -9 1 -34 9 -56 20 -22 11 -45 19 -52 20 -7 0 -33 11 -59 25 -26 14 -51 25 -56 25 -9 0 -40 12 -113 45 -16 7 -42 16 -57 19 -16 4 -28 11 -28 16 0 6 -11 10 -26 10 -14 0 -42 9 -62 19 -61 32 -109 51 -130 51 -11 0 -22 3 -24 8 -1 4 -30 18 -63 31 -33 12 -74 29 -92 37 -17 8 -34 14 -39 14 -4 0 -15 6 -23 14 -14 12 -21 12 -51 -4z"/> <path d="M1610 8372 c-13 -2 -30 -12 -37 -22 -7 -9 -25 -20 -41 -23 -20 -4 -36 -18 -51 -42 -11 -19 -27 -38 -36 -41 -8 -4 -15 -13 -15 -20 0 -8 -9 -41 -20 -74 -20 -59 -19 -133 1 -146 5 -3 9 -17 9 -31 0 -15 14 -51 31 -81 17 -30 28 -63 26 -73 -4 -13 0 -19 12 -19 12 0 22 -14 31 -40 12 -35 11 -42 -4 -59 -11 -12 -14 -21 -7 -26 6 -3 11 -24 11 -45 0 -21 5 -42 11 -45 6 -5 8 -22 3 -49 -4 -22 -8 -70 -9 -104 -1 -42 -7 -67 -16 -73 -11 -7 -11 -9 4 -9 13 0 17 -8 17 -33 0 -18 -5 -38 -11 -44 -8 -8 -8 -17 -1 -30 14 -24 9 -102 -8 -132 -6 -13 -8 -26 -3 -30 17 -12 31 -58 26 -84 -3 -15 -1 -33 5 -40 5 -6 15 -30 22 -52 7 -22 20 -45 27 -51 8 -5 13 -17 12 -25 -3 -13 11 -31 104 -128 23 -24 41 -50 39 -57 -2 -9 5 -13 20 -11 15 1 22 -3 20 -12 -1 -7 4 -18 12 -25 9 -6 16 -27 16 -51 1 -98 2 -127 8 -239 5 -84 4 -130 -5 -155 -7 -19 -9 -38 -5 -41 4 -3 9 -48 10 -100 2 -52 5 -102 8 -111 2 -9 -2 -24 -11 -32 -17 -18 -20 -43 -5 -52 13 -8 13 -161 0 -185 -7 -13 -6 -21 3 -29 16 -13 13 -151 -4 -182 -8 -15 -8 -24 0 -32 14 -14 14 -84 0 -92 -7 -5 -6 -12 4 -23 17 -20 14 -81 -4 -93 -11 -6 -10 -13 1 -35 17 -30 17 -117 1 -122 -7 -2 -6 -10 2 -22 9 -15 9 -22 0 -31 -9 -9 -8 -15 3 -27 13 -13 13 -16 -1 -32 -12 -13 -13 -20 -4 -25 8 -6 10 -32 7 -90 -3 -45 -1 -90 4 -99 6 -10 6 -22 1 -29 -15 -19 -9 -192 6 -211 18 -21 7 -47 -16 -40 -14 5 -15 4 -4 -4 15 -11 16 -30 12 -222 -1 -52 0 -158 3 -235 2 -80 0 -145 -5 -152 -6 -7 -5 -23 4 -45 12 -29 12 -37 -2 -66 -10 -22 -12 -35 -5 -40 15 -10 17 -291 3 -309 -9 -10 -7 -18 7 -34 18 -20 18 -22 1 -34 -21 -15 -22 -29 -2 -45 11 -9 12 -16 2 -31 -9 -15 -9 -24 1 -40 12 -18 11 -24 -7 -43 -25 -27 -27 -52 -4 -65 15 -8 16 -12 4 -34 -8 -15 -10 -34 -5 -48 4 -13 7 -44 6 -69 -3 -136 -1 -341 4 -353 8 -21 -14 -68 -35 -74 -26 -7 -63 -135 -63 -220 0 -38 -3 -72 -6 -78 -3 -5 -6 -31 -6 -58 -1 -33 -6 -51 -17 -57 -22 -12 -45 -121 -31 -146 8 -14 6 -21 -6 -30 -14 -10 -15 -15 -4 -25 6 -7 12 -23 12 -35 0 -12 7 -24 15 -28 8 -3 15 -12 15 -21 0 -8 11 -20 25 -25 14 -5 25 -16 25 -24 0 -15 21 -26 51 -26 11 0 22 -7 25 -15 4 -10 10 -12 18 -7 6 5 38 12 71 15 48 5 64 11 80 32 12 14 25 25 31 25 6 0 20 14 32 30 13 17 29 30 37 30 20 0 31 48 16 72 -13 21 -8 23 20 7 13 -6 19 -19 17 -33 -1 -12 5 -34 15 -49 14 -21 15 -31 6 -45 -9 -14 -8 -25 5 -50 15 -29 15 -32 1 -32 -19 0 -49 -66 -65 -144 -6 -31 -18 -69 -26 -84 -16 -31 -19 -72 -4 -72 6 0 10 -6 10 -13 0 -7 9 -20 20 -30 11 -9 20 -25 20 -35 0 -22 49 -68 88 -84 26 -10 106 -28 127 -28 57 0 90 11 112 38 12 16 34 33 48 36 16 4 27 16 31 34 4 15 13 37 21 48 9 14 11 32 7 48 -5 20 -2 31 11 40 13 9 15 15 7 20 -16 10 -15 59 1 75 10 11 8 12 -11 6 -20 -6 -22 -4 -17 18 5 19 2 25 -16 30 -16 4 -20 11 -16 28 4 15 1 23 -13 26 -15 4 -19 14 -19 47 0 22 0 50 0 61 -1 33 7 620 8 620 6 0 5 137 -1 141 -13 8 -9 109 4 122 9 9 9 17 -1 35 -9 16 -9 30 -2 50 6 14 7 29 2 31 -5 3 -9 46 -9 95 l-1 90 31 16 c42 20 58 19 58 -5 0 -13 -5 -18 -15 -14 -11 4 -15 0 -15 -16 0 -15 4 -20 15 -16 23 9 16 -162 -8 -175 -25 -15 -21 -48 8 -59 26 -10 33 -34 14 -46 -11 -7 -8 -66 6 -97 6 -15 4 -17 -18 -12 -37 10 -40 -8 -8 -41 19 -19 26 -33 20 -40 -6 -7 -3 -23 7 -44 13 -26 14 -37 5 -51 -18 -30 -14 -57 10 -61 14 -2 25 -15 33 -38 7 -22 22 -40 41 -50 17 -8 32 -16 35 -18 2 -2 -2 -7 -10 -12 -12 -7 -11 -12 5 -30 14 -16 16 -23 7 -32 -17 -17 -15 -25 7 -31 16 -4 18 -11 11 -53 -7 -51 -6 -93 6 -156 4 -25 2 -43 -9 -58 -11 -16 -13 -30 -6 -62 6 -24 6 -45 1 -52 -13 -16 -22 -96 -11 -96 5 0 9 8 9 17 0 11 3 13 9 7 6 -5 6 -29 0 -61 -7 -36 -6 -59 1 -73 8 -14 8 -32 0 -61 -8 -29 -8 -55 0 -91 7 -36 7 -54 0 -63 -6 -7 -8 -24 -5 -38 4 -14 2 -28 -4 -32 -8 -4 -8 -12 -1 -25 7 -13 6 -21 -5 -30 -8 -7 -15 -18 -15 -25 0 -7 -7 -18 -16 -26 -27 -22 -54 -85 -42 -97 7 -7 7 -20 -1 -43 -9 -27 -8 -35 5 -50 13 -14 14 -22 5 -32 -9 -11 1 -27 47 -76 31 -34 68 -64 82 -68 49 -12 162 -15 173 -4 6 6 21 11 34 11 37 0 112 77 120 123 3 21 14 44 24 50 14 8 15 15 7 30 -5 11 -7 34 -3 53 5 27 3 34 -10 34 -19 0 -40 49 -26 63 13 13 -27 96 -56 120 -27 22 -29 44 -8 94 12 29 13 39 3 51 -14 17 -12 141 2 156 5 5 5 17 -1 28 -5 10 -7 22 -5 27 3 5 1 33 -4 62 -14 69 -3 156 21 180 24 24 24 31 2 27 -24 -4 -37 70 -17 93 8 9 11 19 7 23 -5 4 -9 66 -10 138 -1 98 -5 135 -17 153 -9 14 -16 35 -16 48 0 13 -9 32 -20 42 -11 10 -20 22 -20 27 0 6 -9 17 -21 26 -17 15 -32 72 -29 117 6 78 5 203 0 250 -4 33 -5 65 -1 70 9 15 10 84 6 268 -3 117 -3 118 22 130 22 10 28 7 59 -27 19 -20 34 -41 34 -47 0 -5 5 -9 10 -9 6 0 10 -7 10 -15 0 -18 27 -20 32 -3 2 6 10 8 17 4 9 -6 9 -11 0 -22 -9 -11 -8 -19 6 -34 10 -11 24 -20 32 -20 7 0 13 -7 13 -15 0 -8 10 -35 22 -61 22 -45 23 -46 4 -60 -12 -8 -15 -14 -7 -14 10 0 11 -9 7 -34 -4 -19 -3 -37 2 -40 8 -5 6 -171 -3 -185 -2 -5 0 -23 6 -40 7 -20 8 -36 2 -44 -5 -6 -9 -30 -7 -52 13 -251 13 -275 -1 -275 -19 0 -19 -20 0 -47 14 -20 14 -26 1 -57 -8 -20 -11 -38 -6 -41 12 -7 18 -87 8 -114 -5 -15 -4 -28 3 -37 8 -10 8 -23 -1 -49 -7 -20 -9 -48 -5 -63 6 -23 8 -96 6 -219 -1 -18 -5 -34 -10 -37 -5 -4 -1 -28 9 -56 10 -27 21 -72 25 -99 4 -28 13 -52 21 -55 8 -3 14 -12 14 -21 0 -8 8 -23 18 -33 9 -10 26 -31 37 -46 11 -16 27 -36 36 -45 37 -37 47 -67 48 -139 1 -43 -3 -72 -9 -72 -5 0 -10 -7 -10 -15 0 -8 4 -15 10 -15 6 0 7 -21 4 -53 -3 -28 -6 -74 -6 -101 -1 -42 -5 -53 -29 -74 -16 -13 -29 -30 -29 -38 0 -8 -9 -19 -20 -26 -23 -15 -27 -38 -5 -38 17 0 19 -11 6 -26 -12 -13 -22 -124 -10 -124 5 0 9 -13 9 -29 0 -16 6 -31 15 -35 8 -3 15 -12 15 -20 0 -18 46 -66 62 -66 6 0 20 -8 30 -17 24 -22 39 -25 112 -23 41 0 63 5 71 16 6 9 18 14 27 12 23 -4 97 44 98 64 0 9 6 21 13 25 22 13 62 105 63 143 0 19 -10 69 -24 110 -20 61 -22 78 -12 94 11 17 9 22 -11 38 -67 50 -87 90 -66 135 7 16 7 26 -3 38 -9 11 -10 18 -1 29 9 10 9 20 0 40 -9 20 -9 29 0 40 10 12 9 20 -4 40 -21 31 -14 56 13 49 29 -7 37 16 13 38 -12 11 -21 28 -21 38 0 10 -7 24 -15 31 -8 7 -18 34 -21 62 -6 44 -11 52 -46 74 -26 17 -41 34 -45 54 -3 17 -12 30 -19 30 -8 0 -14 10 -14 24 0 14 -7 32 -16 41 -10 10 -13 22 -9 33 10 23 6 84 -7 100 -7 8 -7 12 0 12 6 0 12 -6 15 -12 2 -7 8 -10 12 -5 5 4 3 13 -3 19 -7 7 -12 24 -12 39 0 15 -5 31 -10 34 -8 5 -8 11 0 20 6 7 11 74 11 171 0 87 5 164 10 170 6 8 5 14 -5 17 -11 5 -13 22 -9 89 3 46 10 88 15 94 5 7 5 30 -1 55 -10 51 -8 376 4 402 4 10 2 23 -4 31 -10 12 -11 26 -9 126 2 117 -9 178 -43 229 -18 28 -38 51 -46 51 -7 0 -13 7 -13 15 0 8 -13 28 -30 45 -16 17 -30 37 -30 44 0 7 -10 12 -22 12 -15 -1 -24 6 -28 24 -4 16 -14 26 -29 28 -19 3 -22 8 -17 28 5 17 2 26 -9 30 -12 5 -13 9 -4 21 10 11 9 18 -4 31 -16 15 -15 18 11 45 25 27 26 29 9 42 -14 10 -19 29 -21 82 -1 38 -5 74 -9 80 -4 6 0 17 9 24 12 10 15 28 12 77 -2 52 0 66 15 76 9 7 17 21 17 30 0 13 5 16 19 11 18 -5 19 -2 14 29 -5 32 -3 36 16 36 12 0 32 7 45 15 22 15 120 16 143 2 6 -4 18 0 28 7 14 10 42 12 104 9 71 -4 89 -9 102 -26 9 -11 21 -17 28 -12 17 10 52 -25 46 -44 -3 -10 3 -20 18 -26 12 -6 26 -20 32 -33 5 -12 18 -25 28 -28 10 -3 22 -16 27 -30 5 -13 34 -43 65 -66 30 -24 55 -48 55 -53 0 -6 8 -18 18 -26 9 -9 27 -28 40 -43 12 -15 27 -24 32 -21 5 3 16 -7 24 -22 7 -16 24 -37 36 -48 12 -11 26 -29 30 -41 5 -11 23 -28 42 -37 18 -8 41 -30 51 -47 10 -17 29 -41 43 -55 13 -13 24 -29 24 -36 0 -6 7 -8 16 -5 19 7 43 -19 44 -46 0 -19 20 -26 20 -7 0 5 5 7 10 4 8 -5 8 -11 0 -20 -15 -18 12 -39 29 -22 11 10 12 8 7 -9 -5 -16 0 -26 21 -39 28 -18 58 -49 103 -104 13 -17 30 -29 37 -27 7 3 19 -10 29 -29 18 -38 129 -145 150 -145 8 0 14 -8 14 -19 0 -10 25 -40 55 -66 30 -25 55 -55 55 -65 0 -10 12 -26 28 -35 30 -20 172 -163 172 -174 0 -4 20 -24 45 -44 26 -22 45 -47 45 -58 0 -11 5 -17 10 -14 6 4 24 -9 41 -27 17 -18 60 -63 95 -99 36 -36 71 -77 78 -90 7 -14 19 -23 29 -21 9 2 17 -2 17 -7 0 -5 8 -12 18 -15 10 -4 28 -27 40 -51 15 -32 27 -45 40 -43 13 2 17 -3 15 -24 -1 -17 3 -28 11 -28 23 0 106 -76 106 -98 0 -7 9 -16 19 -20 24 -9 201 -177 201 -191 0 -19 66 -79 105 -97 37 -16 98 -23 200 -24 46 -1 85 -17 85 -37 0 -21 23 -15 49 12 13 14 33 25 45 25 12 0 27 5 33 11 11 11 50 -4 65 -26 5 -7 14 -6 27 2 11 7 27 10 36 7 8 -3 15 -2 15 4 0 13 82 23 96 11 7 -5 23 -5 43 2 27 9 35 8 51 -6 11 -10 24 -14 32 -9 7 5 101 7 208 6 229 -2 335 12 335 43 0 14 -9 22 -30 26 -16 4 -308 7 -647 8 -340 0 -618 4 -618 9 0 4 -35 44 -77 89 -204 214 -389 407 -494 517 -214 222 -251 260 -398 416 -80 85 -198 209 -262 275 -64 66 -133 138 -154 160 -20 22 -82 87 -138 145 -56 58 -167 175 -247 260 -80 84 -185 195 -235 246 -101 102 -206 212 -279 293 l-49 54 -211 -2 c-116 0 -216 -1 -223 -1 -18 0 -130 -118 -153 -162 -11 -21 -20 -48 -20 -59 0 -11 -5 -29 -11 -40 -6 -13 -11 -106 -11 -250 l0 -230 26 -33 c14 -18 72 -81 130 -140 78 -79 107 -115 111 -139 3 -17 7 -383 9 -812 3 -667 6 -786 19 -815 8 -19 45 -66 82 -104 101 -106 102 -108 99 -391 l-2 -240 49 -48 c30 -31 49 -57 49 -72 0 -12 7 -25 15 -29 11 -4 13 -16 8 -53 -3 -26 -10 -49 -15 -51 -4 -2 -8 -8 -8 -14 0 -24 -65 -89 -108 -109 -36 -16 -61 -20 -106 -17 -34 3 -62 10 -64 16 -2 7 -9 12 -16 12 -15 0 -41 30 -66 78 -20 37 -26 101 -14 160 8 38 67 102 95 102 18 0 19 8 18 243 l-1 242 -100 105 -100 105 1 815 1 816 -41 39 c-76 73 -190 209 -210 249 -17 36 -19 64 -19 325 0 302 1 312 52 418 30 61 85 120 206 218 l44 35 281 0 282 0 50 -48 c28 -26 64 -64 80 -84 17 -20 128 -137 246 -260 118 -122 235 -245 259 -273 43 -48 140 -150 376 -391 60 -61 156 -162 214 -223 165 -176 338 -356 693 -721 124 -128 400 -419 407 -429 4 -6 820 -12 820 -6 0 1 -73 76 -162 166 -135 137 -496 511 -613 635 -79 83 -422 439 -515 535 -58 59 -136 140 -174 180 -128 136 -390 411 -531 558 -78 80 -174 182 -215 226 -41 44 -124 130 -185 192 -60 62 -111 117 -113 121 -1 5 296 306 660 669 1228 1224 1645 1633 1664 1633 8 0 14 6 14 13 0 11 -76 13 -399 12 l-398 -2 -1049 -1052 -1048 -1051 -328 0 -328 0 -23 27 c-12 15 -51 57 -87 94 -127 129 -141 151 -165 247 -13 55 -15 207 -15 1150 l-1 1087 -31 20 c-18 11 -45 38 -60 60 -24 35 -27 49 -28 118 0 66 4 83 25 117 40 64 91 90 175 90 87 0 106 -10 182 -99 14 -17 16 -190 2 -199 -5 -4 -17 -19 -26 -33 -9 -15 -33 -36 -52 -48 l-34 -21 1 -1106 1 -1106 26 -37 c15 -20 65 -74 111 -119 l84 -82 238 0 239 0 1055 1055 c735 736 1061 1055 1076 1056 12 0 254 0 537 -1 463 0 603 5 693 26 25 6 27 4 27 -28 0 -25 -6 -38 -19 -44 -25 -11 -576 -553 -1626 -1597 -453 -450 -831 -824 -839 -830 -14 -10 -8 -21 46 -78 35 -36 115 -121 179 -190 64 -68 199 -207 299 -309 100 -102 191 -196 202 -210 20 -26 412 -431 642 -664 70 -72 149 -155 175 -185 25 -30 127 -136 226 -236 247 -250 594 -608 657 -679 59 -65 181 -189 222 -223 14 -13 26 -30 26 -39 0 -9 6 -14 13 -12 22 8 19 39 -8 78 -15 21 -24 44 -20 50 8 13 -40 60 -62 60 -11 0 -14 6 -9 24 6 25 -14 51 -22 28 -7 -23 -22 -12 -42 34 -18 38 -25 45 -42 40 -29 -7 -66 34 -70 76 -2 26 -8 33 -24 33 -11 0 -27 5 -35 11 -8 6 -22 14 -32 17 -16 6 -18 14 -12 50 4 23 12 48 17 55 8 8 6 12 -5 12 -9 0 -19 -4 -22 -10 -10 -16 -22 -12 -51 19 -15 17 -38 32 -50 35 -14 4 -24 15 -26 29 -2 12 -10 22 -18 22 -26 1 -41 16 -35 35 5 15 -2 23 -28 34 -25 10 -36 22 -40 45 -5 22 -12 31 -27 31 -11 0 -20 6 -20 13 0 7 -10 17 -22 22 -13 6 -27 20 -33 32 -5 12 -17 24 -27 26 -11 3 -18 15 -18 31 0 21 -5 26 -25 26 -18 0 -30 10 -47 40 -13 22 -31 40 -40 40 -11 0 -18 8 -18 20 0 11 -4 20 -9 20 -5 0 -29 19 -53 43 -24 24 -51 46 -60 50 -10 3 -18 12 -18 20 0 7 -14 26 -31 43 -17 16 -39 43 -50 61 -11 18 -29 35 -39 38 -11 4 -20 12 -20 20 0 7 -7 16 -15 19 -9 3 -21 19 -26 36 -11 31 -23 38 -35 19 -4 -6 -26 11 -56 43 -41 44 -47 56 -39 71 9 14 7 17 -11 18 -14 0 -40 19 -68 49 -25 27 -89 94 -142 149 -54 54 -98 105 -98 113 0 8 -11 20 -25 26 -14 7 -28 19 -31 27 -4 9 -20 23 -36 31 -20 10 -28 20 -24 31 8 20 -11 43 -30 36 -14 -5 -83 61 -84 81 0 4 -11 17 -25 28 -14 11 -25 28 -25 39 0 12 -7 19 -18 19 -23 0 -42 19 -42 43 0 13 -5 17 -14 14 -10 -4 -23 7 -37 30 -12 19 -35 40 -51 45 -17 6 -31 20 -34 34 -3 13 -13 26 -22 29 -10 3 -30 28 -47 56 -28 47 -46 62 -103 88 -17 8 -22 16 -17 31 5 15 0 22 -20 30 -14 5 -28 17 -32 26 -8 22 -48 64 -60 64 -6 0 -29 25 -52 55 -33 44 -40 60 -35 81 4 15 15 29 25 31 11 3 19 9 19 14 0 12 136 149 149 149 6 0 11 7 11 15 0 18 112 135 129 135 6 0 11 6 11 14 0 8 10 16 23 18 14 2 23 11 25 26 2 12 7 22 12 22 10 0 21 11 80 81 69 82 130 142 188 184 28 22 52 42 52 45 0 10 168 180 177 180 5 0 19 16 32 35 13 19 32 35 42 35 11 0 19 7 19 18 1 28 35 66 54 59 10 -4 16 -1 16 8 0 7 12 27 26 45 20 23 32 29 47 24 15 -5 19 -3 14 9 -6 17 66 97 88 97 7 0 15 9 18 20 3 11 13 23 24 27 17 6 49 38 108 108 14 17 29 33 33 37 4 4 16 17 27 28 91 97 248 245 279 262 9 5 16 18 16 29 0 16 5 19 20 14 16 -5 20 -2 20 15 0 12 4 18 11 15 13 -9 49 23 49 44 1 25 26 52 57 60 18 4 33 18 42 39 8 18 22 32 31 32 9 0 22 11 28 25 6 14 18 25 26 25 9 0 21 10 27 22 15 27 144 158 157 158 4 0 18 18 30 39 13 22 31 42 41 46 21 6 81 78 81 97 0 7 9 24 20 38 26 33 25 42 -5 74 -14 15 -25 33 -25 41 0 8 -20 18 -52 24 -28 7 -58 17 -66 23 -10 9 -15 9 -21 -1 -8 -12 -119 -10 -153 4 -9 4 -25 2 -37 -4 -29 -16 -39 -14 -54 15 l-13 25 -12 -27 c-11 -23 -17 -26 -44 -20 -18 3 -37 1 -44 -5 -11 -9 -18 -8 -29 1 -12 10 -21 10 -42 1 -21 -10 -29 -9 -43 4 -20 18 -53 19 -79 3 -14 -9 -52 -9 -152 -1 -92 6 -139 6 -151 -1 -12 -7 -24 -6 -41 3 -15 8 -31 10 -39 5 -7 -5 -44 -9 -83 -10 -84 -2 -134 -11 -157 -31 -11 -10 -18 -11 -23 -4 -3 6 -13 11 -21 11 -10 0 -13 -7 -8 -25 5 -20 2 -25 -12 -25 -11 0 -42 -25 -69 -56 -28 -31 -60 -60 -73 -65 -12 -5 -25 -17 -29 -26 -7 -22 -60 -73 -74 -73 -18 0 -41 -30 -35 -46 9 -24 -3 -37 -22 -22 -13 11 -15 10 -9 -5 4 -11 2 -17 -6 -15 -17 3 -67 -32 -67 -47 0 -7 -11 -20 -25 -29 -14 -9 -27 -27 -31 -41 -3 -14 -21 -34 -40 -46 -19 -11 -34 -25 -34 -30 0 -5 -6 -9 -13 -9 -8 0 -42 -29 -76 -65 -35 -36 -67 -65 -72 -65 -5 0 -9 -10 -9 -22 -1 -16 -15 -32 -45 -51 -25 -16 -45 -35 -45 -43 0 -8 -11 -19 -25 -24 -14 -5 -25 -14 -25 -20 0 -5 -18 -28 -40 -50 -22 -22 -40 -46 -40 -53 0 -6 -14 -18 -31 -26 -36 -16 -73 -49 -82 -73 -3 -10 -13 -18 -21 -18 -15 0 -76 -64 -76 -80 0 -14 -27 -12 -34 3 -3 6 -3 2 -1 -9 5 -17 -2 -27 -30 -44 -29 -18 -34 -26 -29 -47 6 -22 4 -24 -14 -19 -17 6 -19 3 -15 -15 6 -21 4 -22 -31 -16 -32 5 -37 4 -32 -10 7 -17 -29 -63 -49 -63 -7 0 -28 -21 -48 -47 -66 -88 -81 -103 -99 -103 -10 0 -24 -12 -31 -27 -16 -37 -67 -93 -84 -93 -7 0 -18 -11 -23 -25 -5 -14 -20 -27 -35 -31 -22 -5 -25 -11 -21 -30 6 -24 -7 -33 -19 -14 -8 13 -56 -35 -52 -53 1 -6 -8 -13 -20 -15 -12 -2 -25 -12 -28 -22 -3 -10 -21 -32 -40 -49 -19 -17 -35 -35 -35 -40 0 -6 -9 -15 -21 -21 -30 -17 -59 -48 -59 -65 0 -9 -9 -15 -25 -15 -18 0 -26 -7 -31 -24 -8 -32 -49 -70 -65 -61 -9 6 -7 12 7 22 16 12 15 13 -16 7 -19 -4 -40 -11 -47 -16 -7 -6 -25 -7 -42 -3 -17 4 -32 2 -36 -5 -5 -8 -12 -6 -25 5 -17 16 -19 15 -30 -5 -10 -19 -13 -20 -28 -7 -22 19 -116 29 -131 14 -8 -8 -11 -8 -11 1 0 7 -7 12 -15 12 -8 0 -15 4 -15 10 0 5 -11 12 -25 16 -15 4 -25 13 -25 24 0 12 -9 20 -22 22 -18 2 -23 9 -23 31 1 15 -2 27 -6 27 -4 0 -9 9 -12 20 -3 14 -14 20 -31 20 -16 0 -26 6 -26 15 0 8 7 15 15 15 18 0 20 21 3 38 -9 9 -9 15 0 24 15 15 16 48 1 48 -8 0 -9 11 -5 31 3 18 1 37 -4 44 -7 9 -7 27 -1 56 7 29 6 47 -1 56 -5 7 -7 20 -4 29 4 9 1 23 -5 31 -9 11 -7 19 10 36 22 25 28 47 11 47 -14 0 -13 33 2 48 9 9 9 12 -1 12 -9 0 -12 23 -10 90 1 52 -3 95 -9 103 -10 12 -2 81 12 94 3 4 1 12 -5 19 -6 8 -9 21 -5 30 3 8 2 23 -4 33 -13 25 -2 58 23 65 20 5 20 6 3 25 -16 18 -16 22 -2 50 20 38 20 41 -4 41 -23 0 -27 18 -5 26 22 9 18 31 -7 37 -20 6 -21 7 -6 24 13 14 14 23 6 36 -6 13 -7 22 0 29 6 6 6 24 1 46 -16 67 -11 91 24 124 30 29 28 31 -20 11 -12 -5 -12 65 1 86 4 6 0 21 -8 33 -20 29 -10 98 17 117 19 14 19 14 -3 31 -20 15 -21 21 -12 51 12 36 10 102 -3 133 -5 12 -3 21 6 27 12 7 12 12 1 30 -12 18 -12 23 -1 30 11 6 11 11 1 21 -18 18 -15 58 4 58 13 0 15 10 12 62 -3 61 -3 61 28 72 26 9 30 14 21 28 -9 14 -7 22 11 41 12 13 22 34 22 46 0 18 4 22 19 18 19 -5 19 -4 1 29 -12 20 -15 36 -9 39 5 4 7 37 5 78 -4 55 -8 73 -20 75 -10 2 -16 14 -16 33 0 22 -5 29 -20 29 -11 0 -20 7 -20 15 0 8 9 15 20 15 32 0 23 17 -12 23 -22 3 -36 0 -41 -9 -12 -21 -28 -17 -63 17 -33 32 -72 35 -60 4 4 -12 -4 -15 -42 -14 -26 1 -38 3 -27 6 27 7 36 16 27 30 -6 10 -21 8 -62 -8 -30 -11 -59 -25 -65 -30 -5 -5 -17 -9 -26 -9 -10 0 -26 -14 -36 -30 -14 -24 -23 -30 -40 -25 -19 4 -22 0 -29 -42 -5 -37 -15 -55 -40 -78 -33 -29 -33 -31 -14 -43 12 -7 18 -17 15 -22 -6 -10 29 -127 51 -169 8 -14 14 -31 14 -37 0 -6 11 -22 24 -35 19 -20 23 -35 24 -91 1 -38 6 -77 12 -87 16 -31 12 -51 -10 -51 -24 0 -26 -13 -5 -30 17 -14 20 -46 5 -55 -8 -5 -7 -11 0 -20 9 -11 8 -23 -1 -50 -12 -33 -12 -38 4 -46 15 -9 16 -13 2 -46 -19 -44 -19 -47 0 -39 25 9 18 -32 -10 -60 -27 -27 -31 -44 -14 -61 13 -13 5 -43 -12 -43 -6 0 -13 9 -16 19 -4 16 -16 20 -61 23 -37 2 -62 -1 -70 -9 -7 -7 -22 -13 -32 -13 -10 0 -21 -7 -24 -16 -4 -10 -13 -13 -27 -9 -18 6 -20 4 -14 -15 6 -19 4 -22 -11 -18 -17 4 -19 -2 -22 -56 -2 -47 -7 -64 -22 -75 -21 -14 -27 -55 -10 -66 7 -4 8 -11 1 -18 -5 -7 -9 -29 -8 -49 1 -27 -5 -43 -19 -53 -18 -15 -17 -16 14 -10 30 6 32 5 32 -24 0 -27 -4 -31 -27 -32 -27 -1 -27 -1 5 -10 17 -5 32 -13 32 -17 -1 -4 -5 -26 -9 -50 -9 -44 0 -109 20 -148 8 -16 7 -29 -6 -55 -19 -35 -26 -162 -12 -212 9 -34 -17 -50 -37 -22 -9 13 -15 15 -20 7 -11 -18 1 -31 37 -40 41 -10 47 -39 13 -52 -26 -10 -36 -45 -15 -52 6 -2 16 -40 21 -84 11 -78 10 -80 -14 -107 -14 -15 -30 -27 -37 -27 -13 0 -15 -26 -2 -34 5 -3 11 1 15 9 3 8 12 15 21 15 18 0 20 -37 2 -43 -9 -3 -9 -7 1 -20 8 -9 16 -43 19 -77 5 -52 4 -60 -11 -60 -13 0 -16 -5 -10 -22 3 -13 13 -30 20 -39 17 -19 18 -43 3 -72 -16 -30 -15 -30 -36 -18 -10 5 -26 12 -35 15 -20 6 -24 46 -7 63 8 8 8 13 0 17 -16 10 -13 37 6 58 15 17 15 20 -2 52 -14 26 -16 38 -7 48 12 15 5 58 -9 58 -15 0 -10 38 6 44 8 3 15 12 15 21 0 8 6 24 13 36 10 17 9 22 -5 30 -25 14 -22 45 4 52 21 6 21 7 4 26 -15 17 -16 23 -6 36 10 12 10 15 0 15 -9 0 -11 11 -6 40 5 33 3 41 -15 50 -19 11 -20 17 -13 83 4 40 8 83 9 97 2 34 21 77 37 83 9 4 6 8 -9 12 -21 7 -33 32 -32 70 0 17 4 15 28 -12 31 -37 51 -42 51 -13 0 11 -4 20 -10 20 -5 0 -25 17 -44 37 -28 31 -32 40 -22 55 8 15 8 21 -3 27 -12 8 -12 13 2 35 19 29 22 56 6 56 -7 0 -9 10 -5 26 4 14 2 32 -4 39 -8 9 -6 21 7 43 15 27 16 33 3 57 -11 21 -12 30 -2 45 7 11 12 29 12 39 0 11 4 23 10 26 16 10 12 48 -4 42 -30 -12 -49 40 -23 62 10 8 17 7 25 -1 17 -17 14 3 -3 26 -21 28 -19 95 3 112 16 12 16 13 0 14 -25 0 -32 19 -17 46 10 19 10 27 1 36 -18 18 -15 58 4 58 13 0 14 3 5 14 -17 20 -26 129 -12 154 10 18 9 23 -4 28 -20 8 -19 33 2 56 13 14 14 24 7 36 -5 9 -9 49 -7 87 1 39 -2 82 -8 96 -6 16 -7 34 0 51 7 18 6 29 -2 37 -9 10 -7 16 8 27 17 12 18 18 8 45 -10 24 -9 35 5 59 9 17 25 30 35 30 13 0 16 5 11 24 -4 18 -1 25 16 29 13 3 19 10 15 17 -4 6 1 27 10 47 12 24 18 67 20 134 3 94 2 99 -17 99 -17 0 -19 5 -15 26 4 20 0 28 -15 32 -15 4 -18 10 -13 29 5 21 3 23 -19 17 -19 -4 -26 -1 -31 15 -3 12 -15 21 -26 21 -11 0 -27 4 -37 9 -57 30 -87 39 -99 30 -6 -6 -31 -12 -55 -14 -24 -1 -56 -8 -71 -14 -16 -6 -32 -9 -36 -7 -9 6 -24 -5 -38 -29 -6 -11 -16 -19 -22 -17 -6 1 -11 -4 -11 -12 0 -8 -6 -21 -13 -28 -7 -7 -17 -22 -22 -33 -7 -18 -9 -18 -12 -2 -8 32 -20 17 -27 -33 -4 -30 -2 -58 4 -70 8 -16 8 -34 -4 -72 l-15 -51 35 -32 c21 -20 34 -42 34 -58 0 -13 7 -27 15 -31 8 -3 15 -12 15 -20 0 -7 6 -16 14 -19 8 -3 17 -27 21 -56 4 -28 10 -53 14 -55 13 -8 6 -263 -7 -279 -10 -11 -9 -17 3 -27 11 -9 12 -16 4 -26 -8 -9 -7 -22 2 -48 9 -25 10 -38 2 -48 -8 -8 -8 -28 -3 -58 5 -28 4 -50 -2 -57 -7 -9 -7 -23 1 -45 7 -18 8 -35 2 -41 -9 -9 -54 28 -64 53 -4 12 -6 11 -6 -2 -2 -29 -30 -20 -52 16 -11 19 -30 37 -42 40 -28 7 -79 54 -72 66 9 14 -12 48 -34 55 -15 5 -21 19 -27 63 -4 31 -11 68 -16 81 -5 13 -5 28 0 35 13 16 12 105 0 139 -9 22 -7 31 6 46 15 16 15 19 1 31 -14 12 -14 15 0 36 18 28 19 56 3 72 -9 9 -9 20 0 46 10 26 10 50 2 101 -11 70 -7 105 13 105 7 0 21 14 32 30 11 16 26 30 33 30 17 0 32 42 20 57 -6 7 -2 16 12 26 16 11 20 21 15 36 -4 13 1 33 12 51 15 26 16 32 4 40 -9 5 -15 25 -15 49 -1 22 -7 46 -13 53 -7 6 -13 20 -13 29 0 10 -4 21 -10 24 -5 3 -10 13 -10 21 0 8 -16 31 -35 51 -19 20 -35 40 -35 44 0 13 -70 31 -96 25 -16 -4 -24 -2 -24 6 0 13 -91 19 -150 10z m181 -89 c33 -16 49 -30 97 -87 19 -23 23 -40 25 -115 2 -112 -22 -167 -97 -216 l-26 -17 0 -417 c0 -411 0 -417 23 -461 12 -25 41 -58 67 -77 25 -18 52 -40 61 -48 9 -8 20 -15 25 -15 12 -1 64 -47 64 -57 0 -4 7 -21 15 -36 13 -25 15 -306 15 -2178 1 -1182 -2 -2154 -5 -2159 -3 -6 -21 -10 -39 -10 -26 0 -38 -7 -52 -27 -17 -25 -19 -44 -16 -158 l4 -130 40 -37 c89 -82 90 -157 1 -247 -29 -29 -41 -34 -98 -39 -75 -6 -99 6 -145 70 -48 66 -39 149 22 208 l40 38 -1 160 -2 160 32 47 c18 26 41 50 51 53 17 4 18 74 18 2082 l0 2078 -42 34 c-24 18 -47 36 -53 40 -90 68 -156 153 -189 241 -16 43 -18 86 -15 464 l3 417 -31 20 c-17 11 -46 43 -65 71 -31 47 -33 54 -32 137 1 79 3 91 29 125 35 47 53 63 90 85 40 22 142 23 186 1z m626 -293 c10 -11 22 -20 28 -20 16 0 60 -49 79 -87 9 -19 16 -57 16 -93 0 -69 -24 -117 -84 -167 l-36 -30 2 -2854 c2 -1570 1 -2914 0 -2986 -3 -131 -3 -133 22 -157 55 -50 76 -93 76 -154 0 -40 -6 -65 -17 -81 -70 -92 -90 -101 -194 -96 -54 3 -65 7 -90 34 -35 38 -79 125 -79 155 0 12 7 31 15 42 8 10 15 26 15 35 0 16 63 79 78 79 4 0 7 1200 8 2668 0 1467 2 2806 4 2976 l3 310 -39 25 c-74 47 -104 104 -104 201 0 63 4 77 33 121 44 69 76 83 230 97 9 1 25 -7 34 -18z m3810 -1261 c9 -9 24 -9 59 1 43 12 48 12 60 -5 13 -18 14 -18 34 0 18 16 23 17 30 5 6 -8 10 -19 10 -25 0 -5 5 -2 11 8 11 18 49 24 49 7 0 -5 14 -10 30 -10 17 0 30 -5 30 -11 0 -20 -34 -69 -52 -75 -9 -3 -20 -14 -23 -25 -4 -10 -11 -19 -17 -19 -16 0 -48 -31 -48 -47 0 -15 -35 -53 -49 -53 -14 0 -71 -53 -71 -67 0 -7 -11 -20 -25 -29 -14 -9 -25 -22 -25 -30 0 -7 -13 -23 -30 -36 -16 -12 -33 -30 -36 -41 -3 -10 -12 -16 -19 -13 -14 5 -185 -154 -185 -172 0 -6 -10 -14 -22 -18 -26 -8 -47 -32 -48 -54 0 -18 -59 -60 -83 -60 -10 0 -17 -8 -17 -21 0 -11 -4 -18 -8 -15 -4 2 -14 0 -22 -5 -12 -8 -12 -12 -2 -16 18 -7 15 -23 -6 -23 -26 0 -58 -25 -43 -34 18 -11 2 -27 -22 -21 -18 4 -28 -4 -52 -43 -40 -64 -66 -92 -83 -92 -17 0 -92 -70 -92 -85 0 -5 -16 -21 -36 -35 -20 -13 -47 -42 -61 -63 -13 -21 -37 -46 -53 -55 -20 -11 -28 -23 -24 -34 3 -10 -6 -24 -28 -39 -44 -31 -88 -75 -88 -88 0 -6 -10 -10 -22 -8 -14 1 -26 -6 -34 -21 -15 -30 -45 -58 -72 -66 -22 -7 -26 -16 -22 -49 1 -14 -3 -17 -18 -13 -16 5 -26 -3 -48 -39 -21 -31 -34 -43 -46 -39 -21 6 -33 -12 -14 -23 11 -6 12 -13 6 -23 -9 -13 -11 -13 -20 0 -9 13 -14 11 -31 -12 -11 -16 -27 -28 -34 -28 -8 0 -19 -16 -26 -35 -10 -26 -17 -34 -31 -29 -13 4 -19 -2 -24 -20 -3 -14 -21 -37 -40 -51 -19 -14 -34 -33 -34 -41 0 -8 -13 -20 -30 -25 -16 -6 -30 -16 -30 -22 -1 -21 -36 -55 -56 -54 -13 1 -20 -5 -22 -20 -2 -12 -10 -27 -18 -33 -8 -7 -14 -19 -14 -27 0 -8 -10 -23 -22 -33 -20 -16 -23 -28 -24 -94 0 -61 3 -76 15 -76 24 0 51 -31 51 -61 0 -20 7 -29 28 -37 35 -13 102 -73 102 -93 0 -8 13 -26 30 -39 16 -14 29 -30 30 -37 0 -6 9 -15 20 -18 11 -3 20 -11 20 -17 0 -10 90 -98 100 -98 3 0 14 -15 25 -32 23 -41 62 -78 80 -78 8 0 17 -12 21 -27 11 -50 13 -55 32 -49 13 4 23 -1 32 -19 7 -14 19 -25 26 -25 7 0 22 -15 33 -34 12 -19 32 -36 44 -40 14 -3 27 -18 36 -41 7 -19 21 -40 32 -45 10 -6 19 -18 19 -26 0 -11 6 -13 19 -9 11 3 23 0 27 -7 4 -6 2 -14 -4 -16 -7 -2 -12 -11 -12 -19 0 -9 6 -13 15 -9 21 8 65 -14 65 -33 1 -17 44 -71 57 -71 11 0 63 -59 63 -71 0 -5 14 -21 30 -36 17 -14 30 -32 30 -40 0 -7 7 -13 16 -13 15 0 114 -97 114 -112 0 -5 4 -8 10 -8 13 0 60 -41 60 -52 0 -5 32 -41 70 -81 39 -39 70 -75 70 -78 0 -4 10 -9 22 -11 14 -2 24 -12 28 -28 4 -15 13 -25 23 -25 10 0 25 -12 35 -27 9 -14 29 -37 42 -50 14 -14 42 -43 62 -66 21 -23 42 -42 48 -42 5 0 10 -11 10 -25 0 -16 6 -25 16 -25 16 0 94 -75 94 -90 0 -5 12 -15 28 -22 15 -7 31 -23 37 -36 5 -12 18 -22 27 -22 11 0 18 -8 18 -19 0 -10 7 -21 15 -25 8 -3 20 -17 25 -31 6 -15 17 -25 30 -25 11 0 20 -5 20 -11 0 -14 55 -69 69 -69 5 0 24 -20 41 -45 17 -24 36 -48 43 -52 7 -4 28 -27 47 -50 18 -24 41 -45 52 -48 10 -4 18 -15 18 -26 0 -13 7 -19 21 -19 16 0 19 -4 14 -19 -4 -13 0 -23 11 -29 14 -8 14 -12 3 -29 -16 -27 -49 -31 -189 -26 -63 3 -124 4 -135 4 -11 -1 -58 -2 -104 -2 l-84 0 -37 38 c-21 21 -52 49 -69 63 -17 14 -31 33 -31 42 0 10 -6 18 -12 18 -20 0 -116 97 -137 137 -26 50 -81 92 -81 62 0 -5 -5 -7 -10 -4 -6 4 -8 15 -5 26 5 14 0 21 -18 28 -14 6 -33 21 -44 36 -10 14 -62 71 -116 128 -55 56 -103 114 -109 129 -5 15 -20 29 -34 32 -13 4 -24 12 -24 19 -1 16 -41 62 -63 70 -10 4 -22 20 -28 35 -5 16 -22 35 -37 43 -15 8 -35 24 -45 37 -10 12 -25 22 -33 22 -8 0 -14 9 -14 20 0 11 -8 24 -17 27 -24 9 -62 53 -69 81 -4 13 -14 22 -25 22 -11 0 -34 21 -56 50 -20 27 -49 54 -65 59 -17 6 -30 19 -34 36 -3 14 -15 30 -25 36 -11 5 -19 15 -19 22 0 7 -18 24 -40 37 -22 14 -40 29 -40 34 0 5 -17 27 -37 49 -74 78 -98 105 -110 123 -6 11 -15 18 -21 17 -12 -3 -92 72 -92 86 0 5 8 15 18 20 13 8 8 10 -25 11 -36 0 -44 4 -62 33 -11 18 -29 42 -41 52 -11 10 -20 29 -20 42 0 18 -5 23 -24 23 -15 0 -26 7 -29 20 -3 11 -14 20 -24 20 -12 0 -28 18 -48 53 -17 33 -39 58 -57 66 -15 7 -28 20 -28 30 0 9 -13 21 -30 28 -23 9 -30 18 -30 37 0 15 -6 26 -13 26 -13 0 -161 139 -168 158 -6 16 -84 95 -117 120 -17 12 -43 22 -57 22 -14 0 -28 7 -31 15 -4 10 -21 15 -54 15 -26 0 -62 5 -79 11 -24 9 -35 9 -44 0 -16 -16 -49 -14 -76 6 -22 15 -25 15 -35 1 -13 -18 -28 -19 -166 -15 -45 1 -73 -3 -90 -14 -42 -26 -97 -49 -118 -49 -11 0 -29 -12 -39 -26 -10 -14 -27 -27 -38 -28 -15 -3 -19 -10 -18 -30 1 -20 -3 -26 -18 -26 -11 0 -27 -12 -36 -28 -9 -16 -26 -33 -37 -38 -12 -5 -22 -19 -24 -31 -4 -25 -17 -30 -28 -12 -4 8 -9 8 -18 -1 -8 -8 -7 -13 3 -19 7 -5 12 -14 9 -21 -3 -9 -8 -8 -21 4 -15 15 -16 38 -14 178 3 144 5 162 22 174 18 13 18 14 -3 14 -27 0 -39 25 -22 44 8 10 9 36 4 85 -5 51 -3 75 6 86 10 13 10 19 -5 35 -18 20 -18 21 3 41 24 22 28 35 11 41 -7 2 -13 31 -15 65 l-4 61 34 0 c27 0 45 -12 103 -67 39 -38 78 -80 88 -94 9 -15 25 -27 35 -27 10 0 20 -9 23 -19 3 -12 18 -22 38 -26 46 -10 52 -15 39 -30 -7 -8 -8 -20 -4 -26 5 -9 10 -8 19 4 9 13 22 14 80 7 48 -6 72 -5 76 2 5 8 15 8 36 0 28 -12 77 -11 141 3 22 5 42 3 58 -6 18 -9 32 -10 52 -3 18 7 36 7 54 0 21 -7 36 -6 65 8 25 12 39 14 41 7 7 -22 53 -11 77 18 14 15 39 34 57 42 18 7 37 19 41 26 4 7 15 13 22 13 8 0 15 7 15 15 0 8 12 22 26 32 14 9 29 26 34 38 4 11 29 32 54 45 32 16 45 28 41 38 -6 16 41 72 60 72 11 0 46 36 55 56 3 7 24 28 48 47 23 20 60 58 82 86 22 28 54 58 71 66 19 11 29 22 25 31 -4 10 2 14 18 14 16 0 26 7 29 23 7 24 136 159 177 184 14 8 40 34 59 59 18 24 48 53 67 65 19 11 34 27 34 34 0 8 9 17 21 20 11 4 24 17 29 30 5 13 19 25 31 27 14 2 25 14 33 38 8 24 18 36 34 38 12 2 29 16 37 32 8 15 28 33 45 38 16 6 30 18 30 26 0 15 82 106 95 106 3 0 30 26 60 58 31 31 58 60 63 65 59 62 193 187 199 187 5 0 13 10 18 23 6 12 20 26 33 32 12 5 22 16 22 23 0 7 11 17 25 22 14 5 25 16 25 24 0 7 15 25 34 39 18 14 39 40 46 57 11 26 18 31 38 27 18 -3 26 0 29 14 3 11 9 19 14 19 5 0 14 11 19 25 5 14 14 25 19 25 5 0 29 19 52 43 39 37 48 42 90 42 26 0 51 3 55 8 11 11 38 9 51 -4z m-3453 -149 c20 10 27 9 42 -6 18 -18 19 -52 19 -789 1 -424 2 -1367 3 -2096 l2 -1326 33 -35 c17 -20 47 -53 64 -74 l33 -38 -1 -536 c0 -294 0 -541 0 -548 1 -7 12 -18 26 -24 14 -6 28 -22 31 -34 3 -12 12 -25 20 -28 8 -3 14 -16 14 -29 0 -14 7 -30 15 -37 8 -7 15 -29 15 -50 0 -24 -5 -40 -15 -44 -8 -3 -15 -14 -15 -25 0 -25 -80 -103 -97 -96 -8 2 -36 -1 -63 -7 -90 -21 -163 24 -197 120 -17 50 -16 68 6 132 16 46 25 57 55 70 l36 15 1 534 1 533 -55 57 c-98 99 -89 -144 -86 2246 1 1161 4 2113 5 2116 2 4 22 2 45 -3 30 -8 46 -8 63 2z m-176 -248 c2 -7 -3 -12 -12 -12 -9 0 -16 7 -16 16 0 17 22 14 28 -4z m360 -1368 c34 -9 26 -24 -12 -24 -36 0 -56 14 -34 23 18 7 20 7 46 1z m-415 -44 c3 -11 10 -20 16 -20 6 0 11 9 11 20 0 11 5 20 11 20 6 0 9 -10 8 -22 -2 -13 0 -29 5 -36 5 -8 2 -20 -8 -31 -9 -10 -16 -27 -16 -39 0 -11 -5 -24 -12 -28 -7 -5 -5 -11 8 -21 19 -14 18 -15 -4 -53 -23 -41 -29 -70 -13 -70 5 0 13 9 16 20 3 11 11 20 16 20 13 0 11 -54 -2 -67 -7 -7 -8 -19 -4 -30 16 -34 5 -107 -18 -125 -23 -18 -25 -16 27 -32 9 -3 12 -13 9 -25 -6 -24 -14 -26 -30 -10 -13 13 -33 4 -33 -15 0 -7 9 -21 20 -31 24 -22 26 -35 5 -35 -8 0 -15 -7 -15 -15 0 -8 7 -15 15 -15 8 0 15 5 15 10 0 6 5 10 10 10 16 0 11 -40 -8 -68 -29 -42 -34 -63 -19 -86 8 -12 17 -41 20 -66 6 -39 4 -47 -16 -61 -15 -11 -29 -14 -45 -8 -27 10 -29 29 -2 29 17 0 20 6 19 38 -1 37 -1 37 -11 9 -16 -44 -34 -27 -29 29 1 27 8 57 13 68 7 13 6 22 -6 34 -14 14 -14 17 1 34 13 15 13 18 1 23 -10 4 -13 23 -11 76 1 39 6 76 12 83 6 7 6 17 1 26 -13 20 -13 60 0 60 6 0 10 9 10 20 0 11 -4 20 -9 20 -19 0 -23 41 -6 54 17 12 17 14 1 38 -19 29 -12 58 15 58 10 0 19 5 19 10 0 6 -9 10 -20 10 -22 0 -27 24 -8 36 8 5 6 11 -6 19 -17 13 -13 45 6 45 6 0 5 6 -2 15 -7 8 -10 24 -7 35 3 10 -2 25 -10 31 -11 10 -11 14 -1 20 24 16 55 10 61 -11z m27 -956 c13 -33 13 -34 -4 -28 -19 7 -28 -22 -10 -36 8 -7 14 -21 14 -32 0 -11 5 -28 10 -39 17 -30 3 -41 -31 -24 -26 14 -30 14 -35 0 -11 -28 3 -46 31 -39 19 5 25 2 25 -9 0 -9 -5 -19 -11 -23 -8 -4 -8 -9 0 -17 6 -6 11 -27 11 -47 0 -20 5 -41 11 -47 17 -17 4 -42 -19 -36 -19 4 -31 -18 -32 -54 0 -22 37 -14 43 8 3 12 10 18 16 14 7 -4 4 -19 -9 -45 -20 -38 -19 -100 1 -100 12 0 11 -87 -1 -95 -5 -3 -7 -25 -3 -51 l6 -45 -28 7 c-25 6 -27 5 -20 -17 5 -13 9 -40 10 -59 3 -39 17 -44 26 -8 4 18 7 14 12 -20 5 -26 3 -51 -4 -63 -6 -12 -8 -32 -4 -46 4 -17 2 -22 -5 -18 -6 4 -22 -3 -35 -15 -13 -12 -28 -19 -34 -15 -14 8 -14 62 0 67 6 2 7 12 2 28 -5 14 -8 115 -7 225 1 127 -3 205 -9 213 -8 10 -7 19 1 32 6 11 9 27 5 36 -4 10 0 20 11 26 15 9 16 12 3 26 -16 19 -31 85 -21 95 4 3 7 38 8 76 1 52 -2 72 -13 76 -11 5 -11 8 3 23 11 13 13 21 5 29 -16 16 0 61 24 66 43 8 48 7 57 -19z m-420 -58 c0 -8 -4 -17 -9 -21 -12 -7 -24 12 -16 25 9 15 25 12 25 -4z m10 -352 c0 -13 -21 -44 -30 -44 -14 0 -12 24 2 38 13 13 28 16 28 6z m-10 -134 c0 -22 0 -42 0 -45 0 -3 -3 -5 -7 -5 -11 0 -25 59 -19 76 11 28 26 13 26 -26z m0 -130 c0 -19 -11 -26 -23 -14 -8 8 3 34 14 34 5 0 9 -9 9 -20z m2 -892 c-14 -14 -32 -1 -27 17 16 50 17 51 27 22 7 -19 7 -32 0 -39z m-4 -32 c26 -9 29 -31 5 -44 -14 -9 -14 -10 5 -16 27 -9 28 -21 2 -54 -16 -20 -18 -27 -8 -33 16 -10 21 -80 17 -226 -1 -35 -5 -63 -10 -63 -5 0 -9 7 -9 16 0 9 -9 18 -20 21 -11 3 -20 14 -20 24 0 10 -4 20 -9 24 -5 3 -12 19 -16 35 -4 17 -10 30 -15 30 -9 0 -24 42 -38 107 -8 33 -7 40 4 36 11 -4 10 2 -2 26 -20 39 -10 71 21 71 16 0 27 10 40 36 9 20 20 32 24 27 3 -6 16 -13 29 -17z m4442 -746 c0 -5 -7 -10 -15 -10 -8 0 -15 5 -15 10 0 6 7 10 15 10 8 0 15 -4 15 -10z"/> <path d="M1861 2168 c0 -7 4 -22 9 -33 7 -17 9 -15 9 13 1 17 -3 32 -9 32 -5 0 -10 -6 -9 -12z"/> <path d="M2314 3519 c-3 -6 -1 -16 5 -22 8 -8 11 -5 11 11 0 24 -5 28 -16 11z"/> <path d="M2316 2477 c-5 -15 -6 -31 -2 -34 11 -11 18 5 14 34 l-4 28 -8 -28z"/> <path d="M2310 2361 c0 -11 5 -23 10 -26 6 -3 10 3 10 14 0 11 -4 23 -10 26 -5 3 -10 -3 -10 -14z"/> <path d="M2310 2209 c0 -11 5 -17 10 -14 6 3 10 13 10 21 0 8 -4 14 -10 14 -5 0 -10 -9 -10 -21z"/> <path d="M2313 1957 c-1 -26 3 -47 8 -47 11 0 11 47 0 75 -5 13 -8 5 -8 -28z"/> <path d="M2319 1760 c-6 -40 -5 -120 1 -120 12 0 19 78 10 108 -5 15 -9 20 -11 12z"/> <path d="M2540 4865 c0 -9 5 -15 11 -13 6 2 11 8 11 13 0 5 -5 11 -11 13 -6 2 -11 -4 -11 -13z"/> <path d="M2516 4512 c-2 -4 -2 -13 2 -19 8 -13 52 1 52 17 0 12 -46 14 -54 2z"/> <path d="M2522 3393 c9 -2 20 -13 23 -24 8 -25 25 -15 18 11 -4 14 -13 20 -32 19 -16 -1 -19 -3 -9 -6z"/> <path d="M4257 8366 c-3 -8 -3 -17 0 -20 7 -7 33 13 33 25 0 15 -27 10 -33 -5z"/> <path d="M5340 8354 c0 -14 3 -14 15 -4 8 7 15 14 15 16 0 2 -7 4 -15 4 -8 0 -15 -7 -15 -16z"/> <path d="M5412 8338 c-20 -20 -14 -27 12 -15 13 7 22 15 20 19 -7 11 -18 10 -32 -4z"/> <path d="M5360 8255 c0 -9 5 -15 11 -13 6 2 11 8 11 13 0 5 -5 11 -11 13 -6 2 -11 -4 -11 -13z"/> <path d="M5636 8241 c-12 -13 -14 -21 -6 -26 11 -7 50 21 50 37 0 15 -27 8 -44 -11z"/> <path d="M5580 8209 c0 -11 5 -17 10 -14 6 3 10 13 10 21 0 8 -4 14 -10 14 -5 0 -10 -9 -10 -21z"/> <path d="M5732 8223 c-21 -8 -44 -62 -34 -79 7 -13 10 -11 15 13 3 17 16 35 31 43 39 21 30 40 -12 23z"/> <path d="M5800 8190 c0 -5 9 -10 21 -10 11 0 17 5 14 10 -3 6 -13 10 -21 10 -8 0 -14 -4 -14 -10z"/> <path d="M5630 8165 c0 -9 5 -15 11 -13 6 2 11 8 11 13 0 5 -5 11 -11 13 -6 2 -11 -4 -11 -13z"/> <path d="M3340 8145 c0 -11 7 -15 23 -13 12 2 22 8 22 13 0 6 -10 11 -22 13 -16 2 -23 -2 -23 -13z"/> <path d="M3237 8100 c-10 -10 -14 -21 -9 -24 5 -3 15 1 22 9 7 8 19 15 26 15 8 0 14 5 14 10 0 16 -34 10 -53 -10z"/> <path d="M5722 8108 c6 -18 28 -21 28 -4 0 9 -7 16 -16 16 -9 0 -14 -5 -12 -12z"/> <path d="M6015 8090 c-10 -11 -15 -20 -12 -20 14 0 57 24 57 32 0 15 -27 8 -45 -12z"/> <path d="M3153 8066 c-41 -13 -43 -26 -4 -26 18 0 31 6 35 16 8 21 7 22 -31 10z"/> <path d="M6096 8065 c-10 -7 -15 -19 -11 -25 5 -8 13 -5 26 9 30 32 21 43 -15 16z"/> <path d="M6170 8040 c0 -5 7 -10 15 -10 8 0 15 5 15 10 0 6 -7 10 -15 10 -8 0 -15 -4 -15 -10z"/> <path d="M3060 8020 c0 -5 9 -10 20 -10 11 0 20 5 20 10 0 6 -9 10 -20 10 -11 0 -20 -4 -20 -10z"/> <path d="M6116 8022 c-3 -6 -1 -14 5 -17 15 -10 25 3 12 16 -7 7 -13 7 -17 1z"/> <path d="M6260 7994 c0 -9 5 -14 12 -12 18 6 21 28 4 28 -9 0 -16 -7 -16 -16z"/> <path d="M6350 7975 c0 -8 5 -15 10 -15 6 0 10 7 10 15 0 8 -4 15 -10 15 -5 0 -10 -7 -10 -15z"/> <path d="M6415 7951 c-7 -12 12 -24 25 -16 11 7 4 25 -10 25 -5 0 -11 -4 -15 -9z"/> <path d="M6585 7811 c-7 -12 12 -24 25 -16 11 7 4 25 -10 25 -5 0 -11 -4 -15 -9z"/> <path d="M6790 7802 c0 -5 7 -13 16 -16 10 -4 14 -1 12 6 -5 15 -28 23 -28 10z"/> <path d="M6862 7769 c2 -6 8 -10 13 -10 5 0 11 4 13 10 2 6 -4 11 -13 11 -9 0 -15 -5 -13 -11z"/> <path d="M6920 7741 c0 -15 16 -22 34 -15 25 9 19 24 -9 24 -14 0 -25 -4 -25 -9z"/> <path d="M6870 7674 c0 -14 4 -23 9 -20 5 3 7 15 4 26 -7 28 -13 25 -13 -6z"/> <path d="M7074 7596 c-4 -9 -4 -20 0 -23 3 -4 12 -1 18 5 9 9 9 15 0 24 -9 9 -13 7 -18 -6z"/> <path d="M7250 7530 c0 -5 7 -10 15 -10 8 0 15 5 15 10 0 6 -7 10 -15 10 -8 0 -15 -4 -15 -10z"/> <path d="M7522 7498 c7 -20 48 -23 48 -4 0 11 -9 16 -26 16 -16 0 -24 -5 -22 -12z"/> <path d="M7605 7471 c-3 -5 -1 -12 5 -16 12 -7 30 2 30 16 0 12 -27 12 -35 0z"/> <path d="M7822 7378 c6 -18 28 -21 28 -4 0 9 -7 16 -16 16 -9 0 -14 -5 -12 -12z"/> <path d="M7856 7333 c-11 -11 -6 -23 9 -23 8 0 15 4 15 9 0 13 -16 22 -24 14z"/> <path d="M7885 6500 c-10 -16 7 -31 23 -21 10 6 10 10 -2 20 -10 9 -16 9 -21 1z"/> <path d="M6750 5640 c0 -5 7 -10 15 -10 8 0 15 5 15 10 0 6 -7 10 -15 10 -8 0 -15 -4 -15 -10z"/> <path d="M6970 5643 c0 -5 12 -13 26 -20 20 -9 30 -9 45 0 10 6 19 15 19 19 0 11 -18 10 -25 -2 -4 -7 -12 -7 -25 0 -22 12 -40 13 -40 3z"/> <path d="M6900 5615 c0 -10 7 -15 18 -13 21 4 19 22 -2 26 -10 2 -16 -3 -16 -13z"/> <path d="M7120 5610 c0 -5 7 -10 15 -10 8 0 15 5 15 10 0 6 -7 10 -15 10 -8 0 -15 -4 -15 -10z"/> <path d="M8046 5525 c-4 -44 -3 -71 6 -84 9 -15 9 -25 1 -43 -12 -24 -17 -623 -6 -682 9 -49 20 -10 17 62 -1 37 2 85 6 106 5 22 6 45 2 50 -11 18 -11 139 0 169 7 17 7 31 1 40 -13 16 -15 257 -2 257 5 0 9 43 9 95 0 73 -3 95 -14 95 -9 0 -15 -20 -20 -65z"/> <path d="M7135 5559 c-4 -6 -5 -12 -2 -15 7 -7 37 7 37 17 0 13 -27 11 -35 -2z"/> <path d="M6892 5524 c-180 -34 -281 -90 -342 -189 -13 -22 -27 -42 -31 -45 -3 -3 -10 -21 -14 -40 -4 -19 -11 -40 -16 -46 -5 -7 -11 -113 -12 -238 l-2 -226 418 -2 c229 0 422 -1 429 -2 18 -2 12 453 -8 475 -7 8 -14 26 -14 38 0 18 -23 64 -40 81 -3 3 -16 21 -29 40 -14 19 -34 42 -45 50 -38 29 -136 78 -168 85 -18 4 -37 10 -42 13 -8 5 -67 9 -84 6z m107 -75 c20 -6 45 -16 56 -22 11 -6 31 -16 45 -24 14 -7 36 -26 48 -43 13 -16 27 -30 33 -30 15 0 48 -42 49 -61 0 -8 11 -30 25 -49 19 -25 22 -37 14 -47 -9 -10 -8 -13 4 -13 22 0 30 -16 18 -38 -7 -13 -7 -22 1 -30 9 -9 8 -17 -1 -35 -8 -15 -9 -31 -3 -47 6 -16 5 -31 -2 -43 -8 -14 -8 -20 4 -27 12 -7 12 -13 1 -33 -7 -13 -14 -44 -16 -68 -1 -24 -3 -46 -4 -48 0 -2 -10 4 -21 14 -19 17 -21 17 -39 1 -15 -14 -37 -18 -96 -18 -42 0 -89 3 -105 7 -16 3 -39 1 -51 -5 -17 -10 -24 -9 -37 3 -11 12 -19 13 -32 5 -12 -8 -44 -8 -106 -1 -80 9 -92 9 -122 -8 -33 -19 -33 -19 -65 4 -17 12 -37 28 -43 36 -6 8 -16 11 -22 7 -14 -9 -14 -9 -3 31 6 21 6 33 -1 35 -6 2 -10 49 -10 116 0 96 3 116 21 145 12 19 21 43 21 54 0 32 35 94 61 106 13 7 25 22 27 34 3 20 78 63 157 91 41 14 151 14 194 1z"/> <path d="M2512 5198 c3 -7 13 -15 24 -17 16 -3 17 -1 5 13 -16 19 -34 21 -29 4z"/> <path d="M6410 4813 c0 -5 5 -15 10 -23 8 -12 10 -11 10 8 0 12 -4 22 -10 22 -5 0 -10 -3 -10 -7z"/> <path d="M6265 4681 c-10 -17 12 -21 25 -6 10 12 10 15 -3 15 -9 0 -18 -4 -22 -9z"/> <path d="M6665 4680 c3 -5 15 -10 26 -10 10 0 19 5 19 10 0 6 -12 10 -26 10 -14 0 -23 -4 -19 -10z"/> <path d="M6817 4683 c-15 -14 -6 -19 28 -15 19 2 38 8 41 13 6 10 -59 12 -69 2z"/> <path d="M6987 4684 c-10 -10 -9 -44 2 -44 13 0 23 32 13 42 -5 5 -11 5 -15 2z"/> <path d="M7136 4682 c-3 -6 -1 -14 5 -17 15 -10 25 3 12 16 -7 7 -13 7 -17 1z"/> <path d="M7270 4680 c0 -5 6 -10 14 -10 8 0 18 5 21 10 3 6 -3 10 -14 10 -12 0 -21 -4 -21 -10z"/> <path d="M8047 4658 c-9 -37 -7 -289 3 -283 8 5 15 305 6 305 -2 0 -6 -10 -9 -22z"/> <path d="M7005 4552 c-1 -2 -164 -3 -360 -2 l-358 0 7 -57 c3 -32 6 -94 6 -138 0 -44 1 -134 1 -200 1 -149 1 -145 0 -175 -3 -81 -1 -98 15 -104 13 -5 15 4 14 72 -4 164 -3 234 3 397 8 179 -55 161 590 163 402 1 536 -2 547 -11 26 -20 39 -106 39 -247 0 -462 2 -520 22 -520 5 0 9 165 9 404 0 316 -3 405 -13 409 -7 2 -84 5 -172 6 -88 1 -202 2 -253 4 -52 1 -95 1 -97 -1z"/> <path d="M6880 4337 c-8 -8 -33 -19 -56 -25 -40 -12 -64 -41 -64 -77 0 -24 13 -18 44 20 16 19 38 35 48 35 11 0 26 7 34 15 9 8 33 15 54 15 24 0 40 -5 44 -15 3 -8 12 -15 20 -15 8 0 23 -11 34 -25 11 -14 25 -25 31 -25 17 0 13 47 -4 54 -8 3 -15 11 -15 18 0 30 -142 51 -170 25z"/> <path d="M8045 4337 c-4 -10 -5 -21 -1 -24 10 -10 18 4 13 24 -4 17 -4 17 -12 0z"/> <path d="M7092 4238 c-18 -18 -14 -52 8 -71 15 -13 19 -24 14 -45 l-6 -27 16 29 c15 26 15 31 1 52 -9 15 -13 34 -9 49 7 27 -4 33 -24 13z"/> <path d="M8045 4238 c-4 -10 -4 -26 0 -35 8 -17 8 -17 12 0 3 9 3 25 0 35 -4 16 -4 16 -12 0z"/> <path d="M6970 4230 c0 -5 7 -10 15 -10 8 0 15 5 15 10 0 6 -7 10 -15 10 -8 0 -15 -4 -15 -10z"/> <path d="M6734 4186 c-9 -22 0 -91 11 -89 14 4 19 103 5 103 -6 0 -13 -6 -16 -14z"/> <path d="M8040 4076 c0 -31 5 -56 10 -56 6 0 10 22 10 49 0 28 -4 53 -10 56 -6 4 -10 -15 -10 -49z"/> <path d="M7087 4083 c-4 -3 -7 -14 -7 -22 0 -9 -9 -24 -20 -34 -13 -11 -20 -29 -20 -51 0 -19 -4 -38 -10 -41 -13 -8 -13 -275 0 -275 10 0 20 50 19 90 -1 14 -1 36 0 50 0 14 1 50 2 80 0 33 6 61 15 71 8 8 14 22 14 30 0 9 7 24 15 35 24 32 17 93 -8 67z"/> <path d="M6740 4060 c0 -5 7 -13 17 -18 10 -6 14 -16 9 -27 -4 -10 0 -25 8 -34 8 -9 16 -32 18 -51 5 -54 23 -41 26 19 2 41 -1 58 -15 72 -10 10 -24 25 -31 34 -14 17 -32 20 -32 5z"/> <path d="M6768 3863 c-3 -50 -8 -118 -10 -147 -4 -40 18 -44 26 -5 10 50 7 179 -4 179 -5 0 -11 -12 -12 -27z"/> <path d="M6303 3803 c-15 -81 0 -123 24 -70 10 21 2 112 -10 124 -2 1 -8 -23 -14 -54z"/> <path d="M6105 3679 c-9 -26 10 -89 42 -144 13 -22 26 -48 30 -57 6 -21 43 -24 43 -4 0 8 -7 16 -15 20 -8 3 -15 12 -15 19 0 8 -7 20 -15 27 -8 7 -15 23 -15 35 0 12 -7 28 -15 35 -8 7 -15 27 -15 46 0 39 -16 53 -25 23z"/> <path d="M7484 3673 c-4 -15 -13 -34 -21 -41 -7 -7 -13 -20 -13 -29 0 -23 25 -9 28 16 2 12 10 25 18 28 16 6 20 53 4 53 -5 0 -13 -12 -16 -27z"/> <path d="M6330 3666 c0 -15 7 -29 15 -32 8 -4 15 -15 15 -25 0 -11 7 -22 15 -25 8 -4 15 -15 15 -25 0 -10 7 -19 15 -19 17 0 21 35 5 45 -5 3 -10 17 -10 31 0 13 -6 24 -13 24 -7 0 -17 10 -22 22 -15 32 -35 34 -35 4z"/> <path d="M6790 3625 c9 -11 33 -15 85 -15 78 0 108 6 99 21 -3 5 -48 9 -101 9 -84 0 -94 -2 -83 -15z"/> <path d="M7413 3559 c-24 -9 -30 -24 -14 -33 9 -6 48 31 40 38 -2 2 -14 0 -26 -5z"/> <path d="M6433 3543 c-7 -2 -13 -9 -13 -15 0 -12 41 -47 56 -48 7 0 14 -7 18 -15 3 -8 15 -15 26 -15 11 0 23 -7 26 -15 7 -16 54 -21 54 -6 0 5 -10 13 -22 16 -29 9 -68 44 -68 62 0 7 -6 13 -14 13 -7 0 -19 7 -26 15 -13 16 -17 17 -37 8z"/> <path d="M6220 3430 c0 -10 9 -24 19 -30 11 -5 23 -19 26 -30 6 -18 45 -30 45 -14 0 12 -71 94 -81 94 -5 0 -9 -9 -9 -20z"/> <path d="M7220 3430 c0 -5 14 -10 30 -10 17 0 30 5 30 10 0 6 -13 10 -30 10 -16 0 -30 -4 -30 -10z"/> <path d="M6635 3415 c-25 -11 -27 -14 -12 -20 29 -12 107 4 107 22 0 12 -3 13 -14 4 -10 -9 -20 -9 -33 -3 -12 7 -28 6 -48 -3z"/> <path d="M6800 3405 c-10 -13 -9 -15 9 -15 11 0 21 4 21 9 0 18 -18 21 -30 6z"/> <path d="M7107 3414 c-16 -16 -5 -24 31 -23 20 0 46 4 57 9 16 7 13 9 -17 9 -20 1 -43 3 -50 6 -8 3 -17 2 -21 -1z"/> <path d="M7530 3384 c0 -17 22 -14 28 4 2 7 -3 12 -12 12 -9 0 -16 -7 -16 -16z"/> <path d="M6330 3327 c0 -12 90 -77 108 -77 5 0 15 -7 22 -15 7 -8 23 -15 36 -15 15 0 24 6 24 15 0 9 -9 15 -25 15 -14 0 -28 7 -31 15 -4 8 -16 15 -28 15 -12 0 -33 13 -46 30 -26 30 -60 40 -60 17z"/> <path d="M7380 3270 c0 -5 7 -10 15 -10 8 0 15 5 15 10 0 6 -7 10 -15 10 -8 0 -15 -4 -15 -10z"/> <path d="M7315 3240 c-3 -5 1 -10 9 -10 8 0 18 5 21 10 3 6 -1 10 -9 10 -8 0 -18 -4 -21 -10z"/> <path d="M6530 3210 c0 -5 16 -10 36 -10 21 0 33 4 29 10 -3 6 -19 10 -36 10 -16 0 -29 -4 -29 -10z"/> <path d="M7235 3210 c-18 -8 -17 -9 8 -9 15 -1 27 4 27 9 0 12 -8 12 -35 0z"/> <path d="M6635 3180 c3 -5 34 -9 68 -9 50 1 56 3 32 9 -46 12 -107 12 -100 0z"/> <path d="M7095 3180 c-4 -6 5 -10 20 -10 15 0 24 4 20 10 -3 6 -12 10 -20 10 -8 0 -17 -4 -20 -10z"/> <path d="M3147 2804 c-8 -8 1 -24 14 -24 5 0 9 7 9 15 0 15 -12 20 -23 9z"/> <path d="M2510 2764 c0 -17 22 -14 28 4 2 7 -3 12 -12 12 -9 0 -16 -7 -16 -16z"/> <path d="M7020 1940 c0 -11 5 -20 10 -20 6 0 10 9 10 20 0 11 -4 20 -10 20 -5 0 -10 -9 -10 -20z"/> <path d="M6860 1750 c0 -5 7 -10 15 -10 8 0 15 5 15 10 0 6 -7 10 -15 10 -8 0 -15 -4 -15 -10z"/> <path d="M3350 1555 c0 -8 5 -15 10 -15 6 0 10 7 10 15 0 8 -4 15 -10 15 -5 0 -10 -7 -10 -15z"/> <path d="M3515 1171 c-9 -30 6 -50 17 -21 5 14 5 27 -1 33 -5 5 -12 1 -16 -12z"/> <path d="M3766 1106 c24 -32 36 -33 32 -3 -2 14 -11 23 -27 25 -23 4 -23 4 -5 -22z"/> <path d="M3518 1087 c-13 -30 -10 -123 3 -110 5 5 9 37 7 69 -2 38 -6 53 -10 41z"/> <path d="M3906 1006 c7 -19 48 -22 42 -3 -3 6 -14 13 -26 15 -16 3 -20 -1 -16 -12z"/> <path d="M3510 925 c0 -19 5 -35 10 -35 6 0 10 16 10 35 0 19 -4 35 -10 35 -5 0 -10 -16 -10 -35z"/> <path d="M4010 945 c0 -8 7 -15 15 -15 9 0 18 -7 21 -15 6 -16 34 -21 34 -7 0 12 -44 52 -58 52 -7 0 -12 -7 -12 -15z"/> <path d="M5528 938 c9 -9 15 -9 24 0 9 9 7 12 -12 12 -19 0 -21 -3 -12 -12z"/> <path d="M5460 910 c0 -5 9 -10 20 -10 11 0 20 5 20 10 0 6 -9 10 -20 10 -11 0 -20 -4 -20 -10z"/> <path d="M5425 889 c-10 -15 3 -25 16 -12 7 7 7 13 1 17 -6 3 -14 1 -17 -5z"/> <path d="M3515 798 c-4 -10 -4 -26 0 -35 8 -17 8 -17 12 0 3 9 3 25 0 35 -4 16 -4 16 -12 0z"/> <path d="M4250 790 c0 -5 7 -10 15 -10 8 0 15 5 15 10 0 6 -7 10 -15 10 -8 0 -15 -4 -15 -10z"/> <path d="M4300 760 c0 -5 9 -10 20 -10 11 0 20 5 20 10 0 6 -9 10 -20 10 -11 0 -20 -4 -20 -10z"/> <path d="M4423 713 c-22 -8 -14 -23 12 -23 14 0 28 -7 31 -15 4 -8 16 -15 29 -15 12 0 28 -7 35 -15 7 -8 16 -12 22 -9 11 7 -9 34 -26 34 -7 0 -27 11 -46 25 -35 26 -37 27 -57 18z"/> <path d="M5020 675 c-10 -13 -9 -15 9 -15 12 0 21 6 21 15 0 8 -4 15 -9 15 -5 0 -14 -7 -21 -15z"/> <path d="M4940 645 c-10 -12 -10 -15 3 -15 19 0 31 16 18 24 -5 3 -14 -1 -21 -9z"/> <path d="M4600 610 c0 -5 14 -10 31 -10 17 0 28 4 24 10 -3 6 -17 10 -31 10 -13 0 -24 -4 -24 -10z"/> <path d="M4675 581 c3 -6 13 -11 21 -11 8 0 14 -4 14 -9 0 -14 40 -25 51 -14 14 14 -9 29 -54 37 -27 5 -37 4 -32 -3z"/> </g> </svg> 