<svg version="1.0" xmlns="http://www.w3.org/2000/svg" width="32" height="32" viewBox="0 0 900.000000 900.000000" preserveAspectRatio="xMidYMid meet">
  <g transform="translate(0.000000,900.000000) scale(0.100000,-0.100000)" fill="#023b3b" stroke="none">
    <path d="M4257 7734 c-3 -4 -25 -8 -47 -9 -22 -1 -49 -10 -59 -19 -9 -9 -24 -16 -32 -16 -8 0 -20 -5 -27 -12 -8 -8 -15 -8 -24 0 -11 8 -17 6 -26 -9 -7 -10 -21 -19 -32 -19 -11 0 -36 -9 -57 -19 -21 -11 -50 -25 -65 -30 -16 -6 -28 -16 -28 -22 0 -7 -9 -9 -25 -5 -18 5 -28 1 -37 -14 -8 -12 -24 -20 -40 -20 -21 0 -28 -5 -28 -20 0 -16 -5 -19 -24 -14 -13 3 -27 1 -30 -5 -4 -6 -17 -11 -28 -11 -11 0 -26 -8 -33 -17 -11 -14 -16 -15 -28 -4 -13 10 -17 9 -25 -6 -6 -10 -34 -27 -62 -37 -28 -10 -54 -25 -57 -32 -3 -8 -17 -14 -32 -14 -14 0 -35 -7 -45 -15 -11 -8 -27 -15 -37 -15 -9 0 -22 -7 -29 -15 -7 -8 -21 -15 -31 -15 -10 0 -44 -14 -75 -31 -38 -20 -65 -28 -81 -25 -17 5 -23 2 -23 -9 0 -23 28 -30 49 -11 10 9 32 16 50 16 19 0 34 6 37 15 4 9 19 15 35 15 17 0 32 6 35 15 4 9 19 15 39 15 20 0 35 6 39 15 3 9 18 15 35 15 16 0 31 6 35 15 3 9 18 15 40 15 21 0 36 6 40 15 3 9 18 15 40 15 21 0 36 6 40 15 3 9 18 15 35 15 16 0 31 6 35 15 3 8 14 15 25 15 10 0 32 7 47 15 16 8 36 15 45 15 9 0 19 7 23 15 3 9 18 15 35 15 16 0 31 6 35 15 3 9 18 15 34 15 16 0 35 7 42 15 7 8 24 15 39 15 14 0 35 7 45 15 11 8 28 15 39 15 10 0 25 7 33 15 9 8 28 15 44 15 16 0 30 7 34 15 3 9 18 15 36 15 18 0 33 -6 36 -15 4 -8 16 -15 29 -15 12 0 28 -7 35 -15 7 -8 22 -15 34 -15 12 0 31 -7 42 -15 10 -8 29 -15 41 -15 12 0 28 -7 37 -15 8 -8 26 -15 40 -15 13 0 31 -7 40 -15 8 -8 26 -15 40 -15 14 0 29 -7 34 -16 5 -9 24 -17 42 -18 19 -1 35 -7 38 -14 2 -6 17 -12 33 -12 17 0 32 -6 35 -15 4 -8 18 -15 34 -15 15 0 33 -7 40 -15 7 -8 22 -15 34 -15 12 0 31 -7 42 -15 10 -8 29 -15 41 -15 12 0 28 -6 35 -14 8 -7 28 -17 46 -21 17 -3 34 -11 37 -16 4 -5 20 -9 36 -9 17 0 32 -6 35 -15 4 -9 19 -15 35 -15 17 0 32 -6 35 -15 4 -9 19 -15 40 -15 22 0 37 -6 40 -15 4 -8 16 -15 28 -15 12 0 31 -7 42 -15 10 -8 29 -15 41 -15 12 0 28 -7 37 -15 8 -8 23 -15 34 -15 11 0 25 -7 32 -15 7 -8 28 -15 47 -15 21 0 36 -6 39 -15 4 -9 19 -15 35 -15 17 0 32 -6 35 -15 4 -9 19 -15 39 -15 18 0 38 -7 45 -15 7 -8 20 -15 29 -15 9 0 28 -6 42 -14 14 -7 37 -16 52 -20 15 -3 27 -11 27 -16 0 -6 13 -10 29 -10 16 0 34 -7 41 -15 7 -8 26 -15 42 -15 16 0 31 -6 34 -15 4 -9 19 -15 35 -15 17 0 32 -6 35 -15 4 -8 18 -15 34 -15 16 0 35 -7 44 -15 8 -8 26 -15 39 -15 14 0 30 -7 37 -15 7 -8 23 -15 36 -15 12 0 29 -7 38 -15 8 -8 26 -15 39 -15 14 0 30 -7 37 -15 7 -8 23 -15 36 -15 12 0 29 -7 38 -15 8 -8 26 -15 39 -15 14 0 30 -7 37 -15 7 -8 22 -15 34 -15 12 0 31 -7 42 -15 10 -8 29 -15 40 -15 12 0 27 -7 34 -15 7 -8 26 -15 42 -15 16 0 31 -6 34 -15 4 -9 19 -15 35 -15 17 0 32 -6 35 -15 4 -9 19 -15 40 -15 22 0 37 -6 40 -15 4 -9 19 -15 39 -15 67 0 63 53 66 -860 1 -465 6 -830 11 -837 5 -7 5 -14 -1 -17 -12 -8 -14 -615 -2 -635 14 -21 21 85 17 264 -1 88 1 176 5 195 5 20 4 39 -1 44 -13 13 -13 136 -1 136 11 0 9 129 -2 148 -5 6 -5 18 0 25 4 6 9 73 10 147 1 74 3 167 3 205 1 39 -2 91 -5 117 -4 26 -4 55 0 65 10 27 13 136 4 154 -5 9 -5 19 -2 23 10 10 11 756 1 762 -5 3 -6 14 -3 23 3 10 -1 24 -10 31 -8 7 -15 21 -15 31 0 11 -7 19 -17 19 -10 0 -40 12 -68 25 -27 14 -58 25 -68 25 -10 0 -20 7 -23 15 -4 9 -19 15 -40 15 -21 0 -44 9 -60 23 -14 12 -40 25 -57 29 -80 17 -93 22 -100 35 -6 9 -17 13 -32 9 -15 -4 -28 1 -40 14 -10 11 -34 22 -54 26 -20 3 -47 14 -61 23 -35 23 -82 42 -88 36 -3 -2 -17 2 -31 10 -14 8 -75 33 -136 55 -60 23 -118 46 -127 51 -10 5 -24 9 -32 9 -8 0 -16 6 -19 14 -6 15 -89 47 -129 50 -15 0 -33 7 -40 14 -6 6 -17 12 -24 12 -6 0 -17 6 -23 14 -6 7 -29 16 -50 20 -21 3 -49 14 -62 24 -13 11 -42 22 -63 26 -21 4 -71 22 -110 41 -39 18 -91 39 -116 46 -25 7 -60 24 -79 36 -19 13 -46 26 -60 29 -14 3 -34 9 -43 14 -11 6 -19 6 -23 0 -10 -16 -23 -12 -30 10 -4 12 -15 20 -29 20 -13 0 -29 6 -36 14 -6 8 -19 12 -27 9 -9 -4 -21 1 -29 12 -8 11 -21 16 -34 12 -11 -3 -20 -2 -20 2 0 10 -46 31 -66 31 -9 0 -27 9 -41 20 -16 12 -34 18 -45 14 -11 -3 -29 3 -44 15 -15 12 -32 21 -38 21 -7 0 -31 9 -54 20 -22 11 -47 20 -54 20 -7 0 -33 11 -58 24 -25 13 -62 29 -83 36 -22 7 -51 18 -65 26 -15 8 -37 14 -49 14 -30 0 -53 10 -53 24 0 12 -151 22 -163 10z"/>
  </g>
</svg>